<svg aria-hidden="true" style="position: absolute; width: 0; height: 0; overflow: hidden;"
  version="1.1" xmlns="http://www.w3.org/2000/svg" xmlns:xlink="http://www.w3.org/1999/xlink">
  <defs>
    <symbol id="icon-github" viewBox="0 0 16 16">
      <path
        d="M8 0C3.58 0 0 3.58 0 8c0 3.54 2.29 6.53 5.47 7.59.4.07.55-.17.55-.38 0-.19-.01-.82-.01-1.49-2.01.37-2.53-.49-2.69-.94-.09-.23-.48-.94-.82-1.13-.28-.15-.68-.52-.01-.53.63-.01 1.08.58 1.23.82.72 1.21 1.87.87 2.33.66.07-.52.28-.87.51-1.07-1.78-.2-3.64-.89-3.64-3.95 0-.87.31-1.59.82-2.15-.08-.2-.36-1.02.08-2.12 0 0 .67-.21 2.2.82.64-.18 1.32-.27 2-.27s1.36.09 2 .27c1.53-1.04 2.2-.82 2.2-.82.44 1.1.16 1.92.08 2.12.51.56.82 1.27.82 2.15 0 3.07-1.87 3.75-3.65 3.95.29.25.54.73.54 1.48 0 1.07-.01 1.93-.01 2.2 0 .21.15.46.55.38A8.01 8.01 0 0 0 16 8c0-4.42-3.58-8-8-8" />
    </symbol>

    <symbol id="icon-mongo" viewBox="0 0 24 24">
      <path fill="white"
        d="M13.74 4.23c-.84-1-1.57-2-1.71-2.22H12c-.14.21-.87 1.22-1.71 2.22c-7.2 9.19 1.14 15.39 1.14 15.39l.07.05c.06.95.22 2.33.22 2.33h.62s.15-1.37.21-2.33l.07-.06s8.32-6.19 1.12-15.38M12 19.48a3.48 3.48 0 0 1-.48-.48L12 9l.45 10a3.57 3.57 0 0 1-.45.48" />
    </symbol>

    <symbol id="icon-graphql" viewBox="0 0 50 50">
      <path
        d="M25,2c-2.212,0 -4,1.788 -4,4c0,0.31968 0.04857,0.62597 0.11914,0.92383l-10.17383,5.38672c-0.73103,-0.80043 -1.77379,-1.31055 -2.94531,-1.31055c-2.212,0 -4,1.788 -4,4c0,1.8551 1.27635,3.40992 3,3.85742v12.28516c-1.72358,0.44533 -3,1.9931 -3,3.85742c0,2.201 1.788,4 4,4c1.17152,0 2.21429,-0.51012 2.94531,-1.31055l10.17383,5.38672c-0.07057,0.29785 -0.11914,0.60415 -0.11914,0.92383c0,2.212 1.788,4 4,4c2.212,0 4,-1.799 4,-4c0,-0.31968 -0.04857,-0.62597 -0.11914,-0.92383l10.17383,-5.38672c0.73103,0.80043 1.77379,1.31055 2.94531,1.31055c2.212,0 4,-1.799 4,-4c0,-1.86432 -1.27642,-3.4121 -3,-3.85742v-12.28516c1.72365,-0.4475 3,-2.00232 3,-3.85742c0,-2.212 -1.788,-4 -4,-4c-1.17152,0 -2.21429,0.51012 -2.94531,1.31055l-10.17383,-5.38672c0.07094,-0.29782 0.11914,-0.60487 0.11914,-0.92383c0,-2.212 -1.788,-4 -4,-4zM22.05469,8.68945c0.04308,0.04717 0.07778,0.10143 0.12305,0.14648l-13.0918,22.33203c-0.02902,-0.00821 -0.05665,-0.01978 -0.08594,-0.02734v-12.2832c1.72358,-0.44533 3,-1.9931 3,-3.85742c0,-0.31968 -0.04857,-0.62597 -0.11914,-0.92383zM27.94336,8.68945l10.17578,5.38672c-0.07057,0.29785 -0.11914,0.60415 -0.11914,0.92383c0,1.86432 1.27642,3.4121 3,3.85742v12.2832c-0.02929,0.00756 -0.05691,0.01914 -0.08594,0.02734l-13.09375,-22.33398c0.04486,-0.04467 0.08033,-0.09779 0.12305,-0.14453zM26.08594,9.83008l13.0918,22.33398c-0.49957,0.49715 -0.85318,1.13161 -1.03516,1.83594h-26.28516c-0.18198,-0.70432 -0.53559,-1.33879 -1.03516,-1.83594l13.0918,-22.33203c0.34737,0.0982 0.70678,0.16797 1.08594,0.16797c0.37929,0 0.73846,-0.07118 1.08594,-0.16992zM12.02539,36h25.94922l-10.0293,5.31055c-0.73103,-0.80043 -1.77379,-1.31055 -2.94531,-1.31055c-1.17152,0 -2.21429,0.51012 -2.94531,1.31055z"></path>
    </symbol>

    <symbol id="icon-nest" viewBox="0 0 50 50">
      <path d="M24.5,32.88c0,0 -0.01,-0.04 -0.02,-0.12c0.02,0.08 0.02,0.12 0.02,0.12z"></path>
      <path
        d="M27.375,8.625c0,0 -0.375,-1.375 0.125,-2.5c0.5,-1.125 0.5,-1.875 -0.5,-3c2,-0.125 2.75,1.25 2.75,1.25l0.025,0.159c0.118,0.766 -0.278,1.494 -0.946,1.888c-0.61,0.359 -1.266,1.015 -1.454,2.203z"></path>
      <path
        d="M41.63,36.24c0.02,-0.21 0.34,-3.04 -0.38,-4.36c-1.5,4.24 -3,8.12 -7.37,10.87c0.62,-1.25 1.62,-3.25 2.62,-6.25c-3,4 -9,8 -13.5,8.25c3.04,-1.68 4.75,-3.84 5.5,-5.25c0,0 -1.75,0.5 -3.88,0.75c2.88,-1.75 4.88,-4.87 3.88,-9.75c-2,6.25 -4.75,8.25 -8.38,8.62c-3.62,0.38 -6.87,-1.5 -6.87,-1.5l1.25,-0.12c0,0 -3.25,-2.5 -2.12,-5.75c0.05,-0.16 0.11,-0.31 0.18,-0.45c0.82,-1.82 3.61,-0.9 3.32,1.07v0.01c0,0 0.87,2.37 3.24,1.74c0.76,-1.24 1.26,-2.5 1.26,-2.5l0.37,1.63c0,0 1.75,-0.75 1.75,-2.13c1.5,0.57 1.88,1.28 1.97,1.59c-0.26,-1.4 -2.52,-11.03 -14.49,-10.89l-2.09,1.94c-0.14,0.13 -0.36,0.02 -0.34,-0.16l0.16,-1.6l0.14,-0.14c-0.04,0.01 -0.09,0 -0.13,0l-0.01,0.14l-0.82,0.76c-0.14,0.13 -0.36,0.02 -0.34,-0.16l0.1,-1.02c-1.74,-0.74 -1.9,-2.7 -1.9,-2.7c0,0 -2.17,-0.61 -1.25,-3.38c0.5,-1.5 1.7,-1.65 2.21,-1.53c0.65,0.15 1.32,0.16 1.94,-0.09c0.9,-0.36 2.05,-1.05 2.85,-2.38c1.5,-2.5 3.75,-3.5 8.62,-3.5c6.45,0 9.05,1.98 9.35,2.22c-0.18,-0.21 -1.27,-1.66 1.03,-3.84c2.27,-2.16 1.86,-2.67 1.77,-2.75c0.34,0.1 4.75,1.6 5.23,7.37c0.5,6 -6.5,7.25 -6.5,7.25c0,0 9,1.75 9.12,-6.75c1.76,1 5.38,4.75 5.88,12.88c0.49,7.88 -3.16,11.65 -3.37,11.86z"></path>
      <path d="M7.85,21.86l-0.14,0.14l0.01,-0.14c0.04,0 0.09,0.01 0.13,0z"></path>
      <path d="M7.85,21.86l-0.14,0.14l0.01,-0.14c0.04,0 0.09,0.01 0.13,0z"></path>
    </symbol>

    <symbol id="icon-node" viewBox="0 0 32 32">
      <path
        d="M 15.994141 3 C 15.629141 3 15.264219 3.0895313 14.949219 3.2695312 L 5.0390625 8.9902344 C 4.3990625 9.3602344 4 10.060781 4 10.800781 L 4 21.179688 C 4 21.929688 4.3990625 22.620234 5.0390625 22.990234 L 7.640625 24.490234 C 8.900625 25.110234 9.3499219 25.109375 9.9199219 25.109375 C 11.789922 25.109375 12.859375 23.979531 12.859375 22.019531 L 12.859375 11.310547 C 12.859375 11.150547 12.730312 11.019531 12.570312 11.019531 L 11.320312 11.019531 C 11.150313 11.019531 11.029297 11.150547 11.029297 11.310547 L 11.029297 22.009766 C 11.029297 22.889766 10.120391 23.749531 8.6503906 23.019531 L 5.9296875 21.449219 C 5.8296875 21.399219 5.7695313 21.289687 5.7695312 21.179688 L 5.7695312 10.810547 C 5.7695312 10.690547 5.8296875 10.589297 5.9296875 10.529297 L 15.839844 4.8105469 C 15.929844 4.7505469 16.050391 4.7505469 16.150391 4.8105469 L 26.060547 10.529297 C 26.160547 10.589297 26.220703 10.690781 26.220703 10.800781 L 26.220703 21.179688 C 26.220703 21.289687 26.160313 21.399219 26.070312 21.449219 L 16.150391 27.179688 C 16.060391 27.229688 15.929844 27.229688 15.839844 27.179688 L 13.289062 25.669922 C 13.219062 25.619922 13.120781 25.610391 13.050781 25.650391 C 12.340781 26.050391 12.210781 26.100078 11.550781 26.330078 C 11.390781 26.380078 11.140625 26.479766 11.640625 26.759766 L 14.949219 28.720703 C 15.269219 28.900703 15.630234 29 15.990234 29 C 16.360234 29 16.719062 28.900703 17.039062 28.720703 L 26.960938 22.990234 C 27.600938 22.620234 28 21.929688 28 21.179688 L 28 10.810547 C 28 10.060547 27.600938 9.37 26.960938 9 L 17.039062 3.2695312 C 16.724063 3.0895313 16.359141 3 15.994141 3 z M 18.660156 11.005859 C 15.830156 11.005859 14.140625 12.205078 14.140625 14.205078 C 14.140625 16.375078 15.819062 16.974141 18.539062 17.244141 C 21.789062 17.564141 22.039062 18.045547 22.039062 18.685547 C 22.039062 19.785547 21.150547 20.255859 19.060547 20.255859 C 16.430547 20.255859 15.850156 19.594922 15.660156 18.294922 C 15.640156 18.154922 15.520859 18.054688 15.380859 18.054688 L 14.089844 18.054688 C 13.929844 18.054688 13.810547 18.185938 13.810547 18.335938 C 13.810547 20.005937 14.720547 21.994141 19.060547 21.994141 C 22.200547 21.994141 24 20.755703 24 18.595703 C 24 16.455703 22.549766 15.884609 19.509766 15.474609 C 16.419766 15.074609 16.109375 14.864531 16.109375 14.144531 C 16.109375 13.544531 16.380156 12.755859 18.660156 12.755859 C 20.690156 12.755859 21.449766 13.194453 21.759766 14.564453 C 21.789766 14.694453 21.899062 14.794922 22.039062 14.794922 L 23.330078 14.794922 C 23.410078 14.794922 23.479063 14.755313 23.539062 14.695312 C 23.589062 14.645313 23.619375 14.564609 23.609375 14.474609 C 23.409375 12.114609 21.840156 11.005859 18.660156 11.005859 z" />
    </symbol>

    <symbol id="icon-postgres" viewBox="0 0 24 24">
      <path fill="white"
        d="M16.805 1a9.85 9.85 0 0 0-2.603.37l-.06.018a10.629 10.629 0 0 0-1.615-.151c-1.113-.019-2.07.243-2.84.68c-.76-.256-2.336-.697-3.997-.609c-1.157.061-2.419.402-3.354 1.36c-.933.958-1.426 2.44-1.322 4.457c.028.557.191 1.464.463 2.64c.27 1.175.652 2.55 1.127 3.805c.475 1.256.996 2.384 1.81 3.15c.406.384.965.707 1.624.68c.463-.018.882-.215 1.243-.506c.176.225.364.323.535.414c.215.114.425.192.642.244a4.61 4.61 0 0 0 1.84.091c.267-.043.548-.127.828-.247c.01.302.022.598.035.898c.038.95.063 1.827.357 2.596c.047.126.176.773.687 1.344c.51.572 1.51.928 2.648.692c.803-.167 1.825-.468 2.503-1.404c.67-.926.973-2.254 1.033-4.409c.015-.116.033-.215.052-.308l.16.014h.018c.857.038 1.787-.08 2.564-.43c.688-.31 1.208-.622 1.587-1.177c.095-.137.199-.303.227-.59c.028-.285-.14-.733-.421-.939c-.563-.414-.916-.257-1.295-.18c-.373.08-.753.124-1.136.133c1.093-1.784 1.876-3.68 2.323-5.358c.264-.99.413-1.903.425-2.701c.012-.798-.055-1.505-.548-2.117c-1.541-1.91-3.708-2.438-5.384-2.456c-.052-.001-.104-.002-.156-.001zm-.044.587c1.585-.015 3.611.417 5.065 2.22c.327.405.424.997.413 1.727c-.012.729-.151 1.601-.405 2.557c-.493 1.852-1.425 4.01-2.738 5.948a.724.724 0 0 0 .15.079c.274.11.898.204 2.145-.044c.313-.065.543-.108.781.068a.478.478 0 0 1 .173.39a.635.635 0 0 1-.123.308c-.24.351-.716.684-1.326.958c-.539.244-1.313.371-1.999.379c-.344.003-.661-.023-.93-.104l-.018-.006c-.104.971-.343 2.89-.498 3.765c-.125.706-.343 1.267-.76 1.687c-.416.42-1.004.673-1.796.838c-.981.204-1.696-.016-2.157-.393c-.46-.375-.671-.874-.798-1.18c-.087-.21-.132-.483-.176-.848a18.073 18.073 0 0 1-.097-1.315a45.725 45.725 0 0 1-.028-2.312c-.41.363-.92.605-1.467.696c-.65.107-1.232.002-1.579-.082a2.19 2.19 0 0 1-.49-.185c-.162-.083-.315-.177-.417-.363a.5.5 0 0 1-.054-.35a.559.559 0 0 1 .206-.303c.188-.148.435-.23.808-.306c.68-.135.917-.228 1.061-.339c.123-.095.262-.287.508-.57a1.166 1.166 0 0 1-.003-.037a2.864 2.864 0 0 1-1.257-.328c-.141.144-.865.887-1.748 1.917c-.371.431-.781.678-1.214.696c-.433.018-.824-.194-1.156-.506c-.665-.626-1.195-1.703-1.657-2.92c-.46-1.218-.836-2.574-1.102-3.729c-.268-1.155-.426-2.086-.448-2.535c-.1-1.909.36-3.195 1.15-4.006c.79-.811 1.872-1.118 2.928-1.177c1.894-.106 3.693.535 4.057.673c.701-.462 1.604-.75 2.733-.732a7.185 7.185 0 0 1 1.588.2l.019-.008c.229-.078.462-.144.698-.196a9.362 9.362 0 0 1 1.957-.23zm.143.614h-.137a8.502 8.502 0 0 0-1.61.176a7.048 7.048 0 0 1 2.692 2.062a7.72 7.72 0 0 1 1.07 1.76c.104.242.174.447.213.605c.02.08.034.147.038.217a.392.392 0 0 1-.011.132l-.006.012c.029.803-.176 1.347-.201 2.113c-.019.556.127 1.209.163 1.92c.034.67-.049 1.405-.497 2.127c.038.044.072.088.108.132c1.185-1.81 2.04-3.814 2.495-5.521c.243-.92.373-1.753.384-2.413c.01-.66-.117-1.139-.279-1.338c-1.268-1.573-2.983-1.974-4.422-1.985zm-4.525.235c-1.117.002-1.919.33-2.526.82c-.627.507-1.047 1.2-1.323 1.911a7.898 7.898 0 0 0-.485 2.213l.013-.007c.337-.184.78-.367 1.254-.473c.475-.106.986-.139 1.449.035c.463.175.846.584.985 1.206c.665 2.986-.207 4.096-.529 4.933a8.628 8.628 0 0 0-.312.929c.04-.01.08-.02.121-.024a1.06 1.06 0 0 1 .51.1c.324.13.546.402.666.714c.031.082.054.17.067.26c.014.038.02.077.019.117a49.059 49.059 0 0 0 .012 3.426c.022.494.054.928.095 1.271c.04.342.098.602.135.69c.12.294.297.678.617.939c.32.26.777.434 1.614.26c.726-.151 1.174-.36 1.474-.663c.298-.301.477-.72.591-1.363c.171-.963.515-3.754.556-4.28c-.018-.395.042-.7.172-.932c.135-.238.343-.384.522-.463c.09-.04.174-.066.243-.085a5.487 5.487 0 0 0-.23-.298a4.065 4.065 0 0 1-.629-1.007a7.578 7.578 0 0 0-.243-.443c-.125-.22-.284-.495-.45-.804c-.333-.619-.695-1.369-.883-2.1c-.187-.729-.215-1.484.265-2.017c.426-.473 1.172-.669 2.293-.559c-.033-.096-.053-.176-.109-.304a7.125 7.125 0 0 0-.983-1.617c-.95-1.178-2.487-2.346-4.863-2.384h-.108zm-6.276.047c-.12 0-.24.004-.36.01c-.954.053-1.856.322-2.501.986c-.647.663-1.072 1.751-.98 3.553c.019.34.172 1.296.434 2.43c.262 1.136.634 2.471 1.08 3.65c.446 1.18.988 2.207 1.502 2.693c.259.243.484.341.688.333c.205-.01.451-.124.753-.475a40.03 40.03 0 0 1 1.71-1.877a3.206 3.206 0 0 1-.932-1.307a3.116 3.116 0 0 1-.17-1.58c.097-.678.11-1.312.099-1.812c-.012-.488-.048-.812-.048-1.015v-.028a8.806 8.806 0 0 1 .559-3.095c.264-.682.658-1.375 1.249-1.936c-.58-.185-1.61-.467-2.725-.52a7.4 7.4 0 0 0-.36-.01zm11.714 4.842c-.641.008-1.001.169-1.19.379c-.268.298-.293.82-.127 1.464c.165.644.507 1.365.829 1.963c.16.3.316.57.442.788c.127.22.22.376.276.51c.052.122.11.23.168.331c.248-.509.293-1.008.267-1.529c-.033-.644-.187-1.303-.164-1.97c.025-.78.184-1.289.198-1.892a5.639 5.639 0 0 0-.699-.044m-7.78.105a2.743 2.743 0 0 0-.582.068a4.49 4.49 0 0 0-1.09.412c-.115.06-.226.13-.33.209l-.02.018c.006.134.033.459.045.936c.01.523-.002 1.19-.106 1.91c-.226 1.568.946 2.866 2.324 2.868c.08-.322.213-.648.345-.992c.384-1.003 1.139-1.734.503-4.589c-.104-.467-.31-.656-.594-.763a1.431 1.431 0 0 0-.495-.077m7.48.187h.048c.062.002.12.009.17.02a.396.396 0 0 1 .13.051a.153.153 0 0 1 .071.1v.008a.215.215 0 0 1-.034.124a.614.614 0 0 1-.104.137a.646.646 0 0 1-.364.195a.57.57 0 0 1-.388-.095a.569.569 0 0 1-.123-.108a.235.235 0 0 1-.06-.116a.151.151 0 0 1 .04-.118a.361.361 0 0 1 .111-.082a1.256 1.256 0 0 1 .504-.118zm-7.388.154c.05 0 .103.005.157.012c.144.02.273.057.371.112c.048.025.09.057.126.097a.214.214 0 0 1 .042.073a.195.195 0 0 1 .009.083a.274.274 0 0 1-.071.141a.608.608 0 0 1-.135.12a.619.619 0 0 1-.424.103a.694.694 0 0 1-.396-.209a.652.652 0 0 1-.112-.15a.25.25 0 0 1-.039-.162c.014-.1.099-.15.18-.18a.842.842 0 0 1 .29-.036zm8.56 6.732h-.003c-.139.05-.253.07-.35.11a.423.423 0 0 0-.225.197c-.06.105-.11.292-.095.61a.49.49 0 0 0 .14.064c.161.048.432.08.735.075c.602-.007 1.344-.143 1.738-.321c.323-.146.623-.336.891-.564c-1.317.264-2.06.194-2.517.011a1.247 1.247 0 0 1-.314-.183zm-7.588.086h-.02c-.05.004-.123.02-.263.172c-.33.358-.444.582-.716.792c-.27.21-.623.321-1.327.461c-.223.044-.35.093-.436.132c.028.022.025.028.066.049c.103.055.236.103.342.13c.303.073.8.159 1.319.073c.518-.086 1.058-.327 1.518-.953c.08-.108.088-.268.023-.44c-.067-.17-.211-.318-.313-.36a.632.632 0 0 0-.193-.054z" />
    </symbol>

    <symbol id="icon-sql-server" viewBox="0 0 24 24">
      <path fill="white"
        d="M4.724 2.505s-.08.127-.004.315c.046.116.186.256.34.404c0 0 1.615 1.576 1.813 1.804c.895 1.033 1.284 2.05 1.32 3.453c.022.9-.151 1.692-.573 2.613c-.756 1.649-2.35 3.468-4.81 5.49l.36-.12c.233-.173.548-.359 1.292-.766c1.713-.936 3.636-1.798 5.999-2.686c3.399-1.277 8.99-2.776 12.172-3.263l.331-.051l-.05-.08c-.292-.452-.49-.731-.73-1.027c-.697-.863-1.542-1.567-2.577-2.146c-1.422-.797-3.267-1.416-5.6-1.88a68 68 0 0 0-2.191-.375a209 209 0 0 1-3.924-.64c-.425-.075-1.06-.181-1.481-.272a9 9 0 0 1-.961-.258c-.268-.105-.645-.207-.726-.515m.936.909c.003-.002.063.017.137.042c.136.046.316.1.526.159q.22.061.479.127c.218.056.399.104.401.107c.024.027.391 1.198.516 1.647c.048.172.084.315.081.318a1 1 0 0 1-.09-.14c-.424-.746-1.097-1.505-1.874-2.116a3 3 0 0 1-.176-.144m1.79.494a1.3 1.3 0 0 1 .195.034c.619.136 1.725.35 2.435.47c.119.02.216.04.216.047a.4.4 0 0 1-.098.062c-.119.06-.602.349-.763.457a7 7 0 0 0-1.03.821a5 5 0 0 1-.197.192a1 1 0 0 1-.041-.137a12 12 0 0 0-.65-1.779a2 2 0 0 1-.071-.165q-.001-.002.004-.002m3.147.598c.02.007.06.13.129.404a6 6 0 0 1 .153 1.977l-.012.038l-.187-.06a47 47 0 0 0-1.562-.46a7 7 0 0 1-.56-.17c0-.022.449-.471.642-.642c.369-.326 1.362-1.098 1.397-1.087m.25.036c.011-.01 1.504.248 2.182.378c.506.097 1.237.25 1.281.269c.022.008-.054.05-.297.16c-.96.432-1.672.82-2.38 1.293c-.186.124-.341.226-.344.226c-.004 0-.006-.104-.006-.23c0-.69-.139-1.387-.391-1.976a1 1 0 0 1-.045-.12m3.86.764c.011.011-.038.306-.08.48c-.132.54-.482 1.344-.914 2.099a2 2 0 0 1-.152.246a1.5 1.5 0 0 1-.219-.115c-.422-.247-.9-.48-1.425-.697a5 5 0 0 1-.278-.12c-.024-.022 1.143-.795 1.762-1.166c.495-.297 1.292-.741 1.306-.727m.276.043c.033 0 .695.18 1.037.283c.853.255 1.837.614 2.475.904l.265.12l-.187.043c-1.561.36-2.9.773-4.188 1.296c-.107.044-.2.08-.207.08a1 1 0 0 1 .075-.185c.388-.823.638-1.687.703-2.42c.006-.067.018-.121.027-.121m-6.58 1.512c.01-.01.514.108.789.185c.413.116 1.292.41 1.292.433c0 .004-.097.089-.215.188A27 27 0 0 0 8.786 9.01a5 5 0 0 1-.308.285c-.007 0-.01-.023-.006-.05c.083-.611.065-1.395-.05-2.193a1.3 1.3 0 0 1-.02-.19zm10.61.01c.007.008-.234.385-.384.6c-.22.314-.537.726-1.261 1.637l-.954 1.202a9 9 0 0 1-.269.333c-.003 0-.05-.066-.103-.146a7.6 7.6 0 0 0-1.47-1.625a10 10 0 0 0-.27-.218a.4.4 0 0 1-.074-.063c0-.01.617-.274 1.088-.466a37 37 0 0 1 2.778-.99c.442-.135.912-.27.919-.264m.278.073a1 1 0 0 1 .207.1a12.3 12.3 0 0 1 2.428 1.824c.194.19.667.683.66.687l-.363.029c-1.53.115-3.486.44-5.37.893c-.128.03-.238.056-.246.056c-.007 0 .133-.14.311-.312c1.107-1.063 1.611-1.734 2.205-2.934c.088-.178.163-.333.166-.342zm-8.088.83c.051.01.523.23.879.408c.325.163.818.426.843.449c.003.003-.17.093-.386.201a25 25 0 0 0-1.878 1.037c-.175.107-.32.194-.325.194c-.015 0-.01-.013.088-.191a7.7 7.7 0 0 0 .738-2.002c.014-.062.03-.1.041-.097zm-.475.084c.01.01-.112.46-.19.7a9 9 0 0 1-.835 1.808l-.09.147l-.203-.197a2.7 2.7 0 0 0-.676-.5a1 1 0 0 1-.176-.102c0-.03.62-.593 1.098-.998c.343-.29 1.064-.867 1.072-.858m2.888 1.188l.177.115c.407.264.888.619 1.255.924c.206.172.605.53.687.616l.044.047l-.294.082a54 54 0 0 0-4.45 1.424a6 6 0 0 1-.32.112c-.021 0-.042.019.333-.326c.96-.883 1.807-1.856 2.44-2.802zm-.759.19c.009.009-.492.71-.789 1.106c-.356.473-.99 1.265-1.426 1.78a9 9 0 0 1-.346.397c-.01.003-.015-.05-.016-.133c0-.44-.112-.91-.308-1.308c-.083-.168-.097-.208-.08-.224c.068-.062 1.127-.666 1.794-1.023c.459-.246 1.163-.604 1.171-.595m-4.59 1.125a4 4 0 0 1 .812.518c.008.005-.087.083-.21.172c-.345.249-.87.644-1.173.886c-.32.255-.331.263-.295.207c.24-.367.36-.574.486-.84c.113-.236.224-.516.304-.76a.7.7 0 0 1 .077-.183zm1.223.96c.017-.003.04.028.139.175c.207.31.366.722.407 1.058l.008.073l-.497.192a47 47 0 0 0-2.266.94c-.155.072-.428.202-.607.292s-.325.16-.325.156s.112-.089.25-.188c1.087-.79 2.025-1.654 2.732-2.519c.075-.092.144-.172.153-.178l.006-.002zm-.564.14c.015.014-.401.484-.681.77a12 12 0 0 1-2.256 1.821c-.108.069-.206.13-.22.138c-.023.014.008-.022.386-.434c.238-.259.42-.474.628-.743a1.2 1.2 0 0 1 .362-.346c.537-.388 1.767-1.221 1.781-1.207zM9.925 0c-.08-.01-1.371.455-2.2.791c-1.123.457-1.996.894-2.534 1.272c-.2.14-.452.393-.488.49a.4.4 0 0 0-.021.123l.488.46l1.158.37L9.087 4l3.153.542l.032-.27l-.028-.005l-.415-.066l-.085-.148a28 28 0 0 1-1.177-2.325a12 12 0 0 1-.53-1.465C9.969.02 9.962.005 9.925 0m-.061.186h.005c.003.003.017.105.032.225c.062.508.176 1 .354 1.53c.134.4.136.377-.024.332c-.37-.103-2.032-.388-3.234-.555a9 9 0 0 1-.357-.053c-.015-.015.867-.477 1.258-.66c.501-.232 1.867-.8 1.966-.819M6.362 1.814l.141.048c.772.262 2.706.632 3.775.72c.12.01.222.021.225.024s-.1.058-.228.122c-.515.258-1.083.573-1.476.819c-.115.072-.22.13-.235.129l-.17-.027l-.144-.023l-.365-.355c-.641-.62-1.141-1.1-1.335-1.28zm-.143.114l.511.638c.282.35.564.699.626.774s.111.138.108.14c-.014.011-.74-.13-1.125-.219a9 9 0 0 1-.803-.212l-.2-.064l.001-.049c.003-.245.312-.607.836-.976zm4.352.869c.015.001.032.032.077.131c.124.272.51 1.008.603 1.15c.03.047.08.05-.433-.033c-1.23-.198-1.629-.265-1.629-.273a.4.4 0 0 1 .083-.054a7 7 0 0 0 1.107-.767l.175-.147q.01-.008.017-.007m4.309 8.408l-4.808 1.568l-4.18 1.846l-1.17.31a32 32 0 0 1-1.928 1.682a7.5 7.5 0 0 0-.953.945c-.332.414-.592.854-.704 1.193c-.2.61-.103 1.228.285 1.798c.495.728 1.48 1.468 2.625 1.972c.585.256 1.57.588 2.31.774c1.233.312 3.614.65 4.926.7c.266.01.62.01.637-.002c.028-.019.233-.405.47-.89c.806-1.646 1.389-3.19 1.703-4.508c.19-.799.338-1.863.434-3.125a26 26 0 0 0 .016-1.934a14 14 0 0 0-.183-1.706a.4.4 0 0 1-.012-.15c.014-.01.059-.025.65-.197zm-1.1.645c.045 0 .16 1.114.191 1.82c.006.151.005.247-.004.247c-.028 0-.615-.345-1.032-.606a29 29 0 0 1-1.162-.772c-.035-.028-.031-.029.266-.131c.505-.174 1.704-.558 1.742-.558zm-2.448.803c.03 0 .115.047.315.172c.75.47 1.766 1.035 2.2 1.225c.136.06.151.036-.16.247c-.662.45-1.486.892-2.497 1.342a8 8 0 0 1-.331.142a1 1 0 0 1 .043-.2c.245-.905.383-1.82.387-2.554c.002-.362.002-.364.037-.373zm-.504.193c.021.022.006.834-.02 1.056a9.2 9.2 0 0 1-.418 1.837c-.014.017-.511-.468-.676-.66a5 5 0 0 1-.669-.973c-.082-.162-.214-.484-.202-.493c.056-.04 1.971-.78 1.985-.767m-2.375.936q.006 0 .01.004a1 1 0 0 1 .056.131a5 5 0 0 0 .602 1.08a6.3 6.3 0 0 0 1.017 1.06c.023.02.03.016-.562.24a49 49 0 0 1-2.294.8c-.327.106-.604.195-.615.2c-.033.011-.023-.009.073-.158c.427-.666 1.073-1.97 1.435-2.892c.062-.16.122-.32.133-.356c.015-.052.031-.07.08-.092a.2.2 0 0 1 .065-.017m-.728.3c.01.009-.174.398-.356.751a29 29 0 0 1-1.253 2.185l-.182.288c-.018.027-.026.018-.082-.094a3.3 3.3 0 0 1-.28-.842a3.4 3.4 0 0 1 .02-1.083c.047-.227.045-.222.152-.276c.462-.237 1.966-.942 1.981-.929m6.268.255v.154a20 20 0 0 1-.255 2.992a9.4 9.4 0 0 1-1.898-.782c-.354-.194-.865-.507-.85-.522c.003-.004.154-.083.334-.177c.714-.37 1.395-.77 1.988-1.166c.222-.148.555-.389.629-.454zM4.981 15.41c.015 0 .011.028-.012.161a4 4 0 0 0-.041.39c-.03.532.057.924.32 1.46c.074.15.132.274.129.276c-.027.023-2.43.726-3.186.933l-.435.12c-.027.008-.029.002-.02-.06c.083-.533.49-1.232 1.058-1.82c.378-.39.68-.622 1.195-.915a31 31 0 0 1 .992-.545m5.669 1.015c.002-.002.091.045.197.107c.777.449 1.86.87 2.783 1.081l.084.02l-.115.063c-.482.268-2.071.929-3.694 1.537l-.513.194a.3.3 0 0 1-.082.027c0-.004.067-.132.149-.286c.456-.852.91-1.887 1.144-2.605c.023-.073.044-.135.047-.138m-.578.19a1.4 1.4 0 0 1-.063.169a24 24 0 0 1-1.261 2.54a9 9 0 0 1-.252.433c-.005 0-.114-.066-.244-.145c-.77-.472-1.452-1.052-1.9-1.617l-.064-.08l.332-.091a24 24 0 0 0 3.19-1.103c.142-.06.26-.109.262-.106m3.59 1.253q.002 0 .002.003c0 .08-.183.828-.336 1.37c-.128.453-.236.808-.435 1.437a9 9 0 0 1-.168.504a15 15 0 0 1-3-.841a8 8 0 0 1-.639-.283c-.006-.007.213-.11.486-.23c1.655-.721 3.369-1.543 3.955-1.896a.4.4 0 0 1 .135-.064m-8.287.283c.009.009-.454.671-1.1 1.576l-.587.823c-.097.139-.245.358-.329.488l-.153.236l-.162-.137a6.5 6.5 0 0 1-.677-.69c-.312-.389-.523-.798-.607-1.174c-.038-.174-.04-.262-.003-.273a176 176 0 0 1 1.934-.455l1.3-.305c.209-.05.382-.09.384-.089m.465.178l.117.131a6.8 6.8 0 0 0 1.706 1.394a1 1 0 0 1 .195.128a282 282 0 0 1-4.33 1.53l-.072-.048l-.067-.048l.105-.152c.34-.493.768-1.035 1.705-2.162zm2.9 2.073c.003-.003.165.054.362.128c.473.177.844.292 1.347.418c.617.155 1.51.31 2.038.354c.08.006.122.016.11.024c-.025.016-.56.194-.953.318a259 259 0 0 1-4.636 1.363c-.035.007-.157-.025-.157-.04c0-.009.087-.119.193-.246a22 22 0 0 0 1.476-1.984zm-.642.018c.005.005-.253.418-.706 1.132c-.192.301-.409.645-.483.762c-.075.118-.184.298-.242.4l-.107.185l-.054-.014c-.13-.035-1.049-.36-1.291-.456a9 9 0 0 1-.846-.389c-.289-.156-.655-.388-.627-.397l1.105-.302c1.592-.434 2.473-.683 3.05-.864c.109-.033.199-.059.2-.057zm4.523 1.061h.006c.015.038-.575 1.67-.79 2.188c-.049.116-.066.145-.092.143a56 56 0 0 1-1.433-.2c-.906-.138-2.423-.403-2.806-.49l-.089-.02l.543-.122c1.164-.262 1.723-.403 2.29-.577a16.5 16.5 0 0 0 2.138-.824a2 2 0 0 1 .233-.098" />
    </symbol>

    <symbol id="icon-adobexd" viewBox="0 0 24 24">
      <path fill="white"
        d="M4.25.3C1.9.3 0 2.2 0 4.55v14.9c0 2.35 1.9 4.25 4.25 4.25h15.5c2.35 0 4.25-1.9 4.25-4.25V4.55C24 2.2 22.1.3 19.75.3Zm14.07 5.13h2.03c.05-.01.09.03.1.07v9.54c0 .18.01.38.02.6c.02.21.03.41.04.58c0 .07-.03.13-.1.16c-.52.22-1.07.38-1.63.48c-.51.09-1.02.14-1.54.14c-.74.01-1.48-.14-2.15-.45c-.63-.29-1.15-.77-1.51-1.36c-.37-.61-.55-1.37-.55-2.28a4.11 4.11 0 0 1 2.14-3.66c.7-.39 1.54-.58 2.53-.58c.05 0 .12 0 .21.01s.19.01.31.02V5.54c0-.07.03-.11.1-.11M3.68 6.3h2.27c.05 0 .1.01.14.02c.04.02.07.05.1.09c.19.43.41.86.64 1.29c.24.43.47.85.72 1.27c.24.42.46.84.67 1.27h.02c.21-.44.43-.87.65-1.29s.45-.84.68-1.26s.45-.85.67-1.26c.01-.04.03-.08.06-.1a.2.2 0 0 1 .13-.02h2.11c.05-.01.1.02.11.07c.01.01-.01.05-.03.07l-3 4.95l3.2 5.25c.02.04.03.08.02.12s-.05.01-.11.02h-2.29c-.16 0-.27-.01-.34-.11c-.21-.42-.43-.83-.64-1.25c-.21-.41-.44-.83-.68-1.26s-.48-.86-.72-1.3h-.02c-.21.43-.44.86-.67 1.29s-.46.86-.68 1.28c-.23.42-.46.85-.69 1.26c-.04.1-.12.11-.23.11h-2.2c-.04 0-.07.02-.07-.03a.14.14 0 0 1 .02-.11l3.11-5.1L3.6 6.44c-.03-.04-.04-.08-.02-.1c.02-.03.06-.04.1-.04m13.94 4.23c-.39 0-.78.08-1.13.26c-.34.17-.63.42-.85.74s-.33.75-.33 1.27c-.01.35.05.7.17 1.03c.1.27.25.51.45.71c.19.18.42.32.68.4c.27.09.55.13.83.13c.15 0 .29-.01.42-.02c.13.01.24-.01.36-.05v-4.4a2.6 2.6 0 0 0-.6-.07" />
    </symbol>

    <symbol id="icon-blender" viewBox="0 0 24 24">
      <path fill="white"
        d="M12.51 13.214c.046-.8.438-1.506 1.03-2.006a3.42 3.42 0 0 1 2.212-.79c.85 0 1.631.3 2.211.79c.592.5.983 1.206 1.028 2.005c.045.823-.285 1.586-.865 2.153a3.4 3.4 0 0 1-2.374.938a3.4 3.4 0 0 1-2.376-.938c-.58-.567-.91-1.33-.865-2.152M7.35 14.831c.006.314.106.922.256 1.398a7.4 7.4 0 0 0 1.593 2.757a8.2 8.2 0 0 0 2.787 2.001a8.95 8.95 0 0 0 3.66.76a9 9 0 0 0 3.657-.772a8.3 8.3 0 0 0 2.785-2.01a7.4 7.4 0 0 0 1.592-2.762a7 7 0 0 0 .25-3.074a7.1 7.1 0 0 0-1.016-2.779a7.8 7.8 0 0 0-1.852-2.043h.002L13.566 2.55l-.02-.015c-.492-.378-1.319-.376-1.86.002c-.547.382-.609 1.015-.123 1.415l-.001.001l3.126 2.543l-9.53.01h-.013c-.788.001-1.545.518-1.695 1.172c-.154.665.38 1.217 1.2 1.22V8.9l4.83-.01l-8.62 6.617l-.034.025c-.813.622-1.075 1.658-.563 2.313c.52.667 1.625.668 2.447.004L7.414 14s-.069.52-.063.831zm12.09 1.741c-.97.988-2.326 1.548-3.795 1.55c-1.47.004-2.827-.552-3.797-1.538a4.5 4.5 0 0 1-1.036-1.622a4.28 4.28 0 0 1 .282-3.519a4.7 4.7 0 0 1 1.153-1.371c.942-.768 2.141-1.183 3.396-1.185c1.256-.002 2.455.41 3.398 1.175c.48.391.87.854 1.152 1.367a4.3 4.3 0 0 1 .522 1.706a4.2 4.2 0 0 1-.239 1.811a4.5 4.5 0 0 1-1.035 1.626" />
    </symbol>

    <symbol id="icon-figma" viewBox="0 0 48 48">
      <path
        d="M25 2v14h-7c-3.855 0-7-3.145-7-7 0-3.855 3.145-7 7-7H25zM25 18v14h-7c-3.855 0-7-3.145-7-7 0-3.855 3.145-7 7-7H25zM25 34v7c0 3.855-3.145 7-7 7s-7-3.145-7-7c0-3.855 3.145-7 7-7H25zM41 9c0 3.855-3.145 7-7 7h-7V2h7C37.855 2 41 5.145 41 9zM34 18A7 7 0 1034 32 7 7 0 1034 18z" />
    </symbol>

    <symbol id="icon-ps" viewBox="0 0 24 24">
      <path fill="white"
        d="M10.45 10.48a1.3 1.3 0 0 1-1 1.33a4.83 4.83 0 0 1-1.61.19c-.14 0-.15-.09-.15-.19V9.26c0-.07.07-.19.11-.19a4.91 4.91 0 0 1 1.71.11a1.28 1.28 0 0 1 .94 1.3" />
      <path fill="white"
        d="M17 2H7a5 5 0 0 0-5 5v10a5 5 0 0 0 5 5h10a5 5 0 0 0 5-5V7a5 5 0 0 0-5-5m-6 11a3.48 3.48 0 0 1-1.68.54H7.98c-.28 0-.28 0-.28.27v2.32c0 .2-.06.26-.26.26H6.12c-.19 0-.24-.07-.24-.25V7.71c0-.2 0-.26.25-.26h3.13a3.34 3.34 0 0 1 1.62.47a2.75 2.75 0 0 1 1.4 2.39A2.83 2.83 0 0 1 11 13m5.92 3.3a4.62 4.62 0 0 1-2.73.19c-.272-.06-.54-.14-.8-.24a.29.29 0 0 1-.16-.2v-1.51c.32.12.62.26.93.36a3.66 3.66 0 0 0 1.61.14c.107-.02.212-.053.31-.1a.37.37 0 0 0 .08-.63a4 4 0 0 0-.73-.4c-.41-.2-.83-.36-1.22-.59a1.82 1.82 0 0 1-1-1.93a2 2 0 0 1 1.36-1.63a4.21 4.21 0 0 1 2-.17c.32 0 .63.12.95.18c.17 0 .23.14.22.31v1.17c0 .22-.05.24-.25.16a3.87 3.87 0 0 0-2-.34a.9.9 0 0 0-.28.08a.37.37 0 0 0-.1.63c.289.192.593.36.91.5c.38.19.78.34 1.15.55a1.73 1.73 0 0 1 1 1.79a1.92 1.92 0 0 1-1.26 1.64z" />
    </symbol>

    <symbol id="icon-angular" viewBox="0 0 24 24">
      <path fill="white"
        d="M16.712 17.711H7.288l-1.204 2.916L12 24l5.916-3.373zM14.692 0l7.832 16.855l.814-12.856zM9.308 0L.662 3.999l.814 12.856zm-.405 13.93h6.198L12 6.396z" />
    </symbol>

    <symbol id="icon-css" viewBox="0 0 24 24">
      <path fill="white"
        d="m3 2l1.578 17.834L12 22l7.468-2.165L21 2zm13.3 14.722l-4.293 1.204H12l-4.297-1.204l-.297-3.167h2.108l.15 1.526l2.335.639l2.34-.64l.245-3.05h-7.27l-.187-2.006h7.64l.174-2.006H6.924l-.176-2.006h10.506z" />
    </symbol>

    <symbol id="icon-flutter" viewBox="0 0 48 ">
      <path
        d="M26.707 3.293l-21 21c-.391.391-.391 1.024 0 1.414l5.586 5.586c.391.391 1.024.391 1.414 0L39.293 4.707C39.923 4.077 39.477 3 38.586 3H27.414C27.149 3 26.895 3.105 26.707 3.293zM39.293 24.707L22 42l-6.293-6.293c-.391-.391-.391-1.024 0-1.414l11-11C26.895 23.105 27.149 23 27.414 23h11.172C39.477 23 39.923 24.077 39.293 24.707zM39.293 45.293L32 38l-10 4 4.707 4.707C26.895 46.895 27.149 47 27.414 47h11.172C39.477 47 39.923 45.923 39.293 45.293z" />
    </symbol>

    <symbol id="icon-sass" viewBox="0 0 50 50">
      <path
        d="M43.03,27.802c-1.747,0.009 -3.261,0.429 -4.53,1.054c-0.464,-0.926 -0.934,-1.741 -1.013,-2.347c-0.092,-0.707 -0.199,-1.129 -0.088,-1.972c0.111,-0.843 0.599,-2.036 0.591,-2.125c-0.007,-0.089 -0.109,-0.518 -1.117,-0.526c-1.008,-0.007 -1.87,0.194 -1.972,0.46c-0.102,0.266 -0.296,0.865 -0.416,1.49c-0.177,0.914 -2.012,4.174 -3.055,5.879c-0.341,-0.666 -0.631,-1.252 -0.691,-1.716c-0.092,-0.707 -0.199,-1.129 -0.088,-1.972c0.111,-0.843 0.599,-2.036 0.591,-2.125c-0.007,-0.089 -0.109,-0.518 -1.117,-0.526c-1.008,-0.007 -1.87,0.194 -1.972,0.46c-0.102,0.266 -0.21,0.888 -0.416,1.49c-0.207,0.602 -2.647,6.039 -3.286,7.448c-0.326,0.718 -0.609,1.295 -0.809,1.689c-0.001,-0.001 -0.001,-0.002 -0.001,-0.002c0,0 -0.012,0.026 -0.034,0.071c-0.171,0.335 -0.273,0.521 -0.273,0.521c0,0 0.001,0.003 0.003,0.007c-0.136,0.246 -0.281,0.475 -0.353,0.475c-0.05,0 -0.151,-0.656 0.022,-1.555c0.363,-1.886 1.235,-4.828 1.227,-4.929c-0.004,-0.052 0.162,-0.564 -0.57,-0.833c-0.711,-0.26 -0.965,0.174 -1.03,0.175c-0.063,0.001 -0.11,0.153 -0.11,0.153c0,0 0.793,-3.308 -1.512,-3.308c-1.44,0 -3.436,1.576 -4.42,3.004c-0.62,0.338 -1.948,1.063 -3.357,1.837c-0.541,0.297 -1.093,0.601 -1.617,0.89c-0.036,-0.039 -0.071,-0.079 -0.108,-0.118c-2.794,-2.981 -7.958,-5.089 -7.739,-9.096c0.08,-1.457 0.586,-5.293 9.924,-9.946c7.649,-3.812 13.773,-2.763 14.831,-0.438c1.512,3.321 -3.273,9.494 -11.216,10.384c-3.027,0.339 -4.62,-0.834 -5.017,-1.271c-0.417,-0.46 -0.479,-0.481 -0.635,-0.394c-0.254,0.141 -0.093,0.547 0,0.789c0.237,0.617 1.21,1.712 2.87,2.256c1.46,0.479 5.013,0.742 9.311,-0.92c4.813,-1.862 8.571,-7.041 7.468,-11.37c-1.123,-4.403 -8.423,-5.85 -15.332,-3.396c-4.112,1.461 -8.563,3.754 -11.764,6.747c-3.806,3.56 -4.412,6.658 -4.162,7.952c0.889,4.6 7.228,7.595 9.767,9.815c-0.125,0.069 -0.243,0.134 -0.35,0.193c-1.273,0.63 -6.105,3.159 -7.314,5.831c-1.371,3.031 0.218,5.206 1.271,5.499c3.26,0.907 6.606,-0.725 8.404,-3.407c1.798,-2.681 1.578,-6.172 0.753,-7.766c-0.01,-0.02 -0.022,-0.039 -0.032,-0.059c0.329,-0.195 0.664,-0.392 0.996,-0.587c0.648,-0.38 1.284,-0.735 1.836,-1.036c-0.309,0.846 -0.535,1.86 -0.653,3.325c-0.138,1.721 0.567,3.945 1.49,4.82c0.406,0.385 0.895,0.394 1.205,0.394c1.074,0 1.564,-0.893 2.103,-1.95c0.662,-1.296 1.249,-2.804 1.249,-2.804c0,0 -0.737,4.075 1.271,4.075c0.731,0 1.467,-0.949 1.795,-1.432c0.001,0.005 0.001,0.008 0.001,0.008c0,0 0.019,-0.031 0.056,-0.095c0.076,-0.116 0.119,-0.19 0.119,-0.19c0,0 0.002,-0.008 0.004,-0.021c0.294,-0.51 0.946,-1.674 1.924,-3.594c1.263,-2.48 2.475,-5.586 2.475,-5.586c0,0 0.113,0.76 0.482,2.015c0.217,0.739 0.679,1.556 1.043,2.339c-0.293,0.407 -0.473,0.64 -0.473,0.64c0,0 0.002,0.004 0.005,0.012c-0.234,0.311 -0.497,0.646 -0.772,0.974c-0.997,1.188 -2.185,2.544 -2.344,2.936c-0.187,0.461 -0.143,0.801 0.219,1.073c0.264,0.199 0.735,0.23 1.227,0.197c0.896,-0.06 1.527,-0.283 1.838,-0.418c0.485,-0.171 1.05,-0.441 1.58,-0.831c0.978,-0.719 1.568,-1.748 1.512,-3.111c-0.031,-0.751 -0.271,-1.495 -0.574,-2.198c0.089,-0.128 0.178,-0.256 0.267,-0.387c1.542,-2.255 2.738,-4.732 2.738,-4.732c0,0 0.113,0.76 0.482,2.015c0.187,0.636 0.556,1.329 0.887,2.009c-1.45,1.178 -2.349,2.547 -2.662,3.445c-0.577,1.661 -0.125,2.414 0.723,2.585c0.384,0.078 0.927,-0.098 1.335,-0.271c0.508,-0.168 1.118,-0.449 1.688,-0.868c0.978,-0.719 1.919,-1.726 1.862,-3.089c-0.026,-0.62 -0.194,-1.236 -0.422,-1.828c1.229,-0.512 2.821,-0.797 4.848,-0.56c4.349,0.508 5.202,3.223 5.039,4.359c-0.163,1.137 -1.075,1.761 -1.38,1.95c-0.305,0.189 -0.398,0.254 -0.372,0.394c0.037,0.204 0.178,0.196 0.438,0.152c0.358,-0.06 2.283,-0.924 2.366,-3.022c0.104,-2.658 -2.448,-5.583 -6.968,-5.559zM9.512,39.102c-1.44,1.571 -3.453,2.165 -4.316,1.665c-0.932,-0.54 -0.563,-2.854 1.205,-4.521c1.077,-1.016 2.468,-1.952 3.391,-2.529c0.21,-0.126 0.518,-0.312 0.893,-0.537c0.062,-0.035 0.097,-0.055 0.097,-0.055l-0.001,-0.002c0.072,-0.043 0.147,-0.088 0.223,-0.134c0.643,2.374 0.02,4.464 -1.492,6.113zM20.005,31.968c-0.502,1.223 -1.552,4.352 -2.191,4.184c-0.549,-0.144 -0.883,-2.523 -0.11,-4.863c0.389,-1.178 1.22,-2.586 1.709,-3.133c0.786,-0.879 1.652,-1.167 1.862,-0.81c0.269,0.454 -0.955,3.855 -1.27,4.622zM28.675,36.105c-0.213,0.111 -0.408,0.181 -0.498,0.127c-0.067,-0.04 0.088,-0.186 0.088,-0.186c0,0 1.084,-1.167 1.512,-1.698c0.248,-0.309 0.537,-0.676 0.85,-1.086c0.003,0.041 0.004,0.082 0.004,0.122c-0.004,1.398 -1.354,2.341 -1.956,2.721zM35.354,34.582c-0.159,-0.113 -0.132,-0.478 0.389,-1.614c0.205,-0.446 0.672,-1.198 1.485,-1.916c0.094,0.295 0.152,0.578 0.15,0.842c-0.011,1.759 -1.266,2.416 -2.024,2.688z"></path>
    </symbol>

    <symbol id="icon-html" viewBox="0 0 24 24">
      <path fill="white"
        d="m3 2l1.578 17.824L12 22l7.467-2.175L21 2zm14.049 6.048H9.075l.172 2.016h7.697l-.626 6.565l-4.246 1.381l-4.281-1.455l-.288-2.932h2.024l.16 1.411l2.4.815l2.346-.763l.297-3.005H7.416l-.562-6.05h10.412z" />
    </symbol>

    <symbol id="icon-csharp" viewBox="0 0 50 50">
      <path
        d="M25,2c-0.71484,0 -1.42969,0.17969 -2.06641,0.53906l-16.84375,9.46484c-1.28906,0.72266 -2.08984,2.07813 -2.08984,3.53125v18.92969c0,1.45313 0.80078,2.80859 2.08984,3.53125l16.84375,9.46484c0.63672,0.35938 1.35156,0.53906 2.06641,0.53906c0.71484,0 1.42969,-0.17969 2.06641,-0.53906l16.84375,-9.46094c1.28906,-0.72656 2.08984,-2.08203 2.08984,-3.53516v-18.92969c0,-1.45312 -0.80078,-2.80859 -2.08984,-3.53125l-16.84375,-9.46484c-0.63672,-0.35937 -1.35156,-0.53906 -2.06641,-0.53906zM25,13c3.78125,0 7.27734,1.75391 9.54297,4.73828l-4.38281,2.53906c-1.31641,-1.44141 -3.1875,-2.27734 -5.16016,-2.27734c-3.85937,0 -7,3.14063 -7,7c0,3.85938 3.14063,7 7,7c1.97266,0 3.84375,-0.83594 5.16016,-2.27734l4.38281,2.53906c-2.26562,2.98438 -5.76172,4.73828 -9.54297,4.73828c-6.61719,0 -12,-5.38281 -12,-12c0,-6.61719 5.38281,-12 12,-12zM35,20h2v2h2v-2h2v2h2v2h-2v2h2v2h-2v2h-2v-2h-2v2h-2v-2h-2v-2h2v-2h-2v-2h2zM37,24v2h2v-2z"></path>
    </symbol>

    <symbol id="icon-c++" viewBox="0 0 50 50">
      <path
        d="M 43.910156 12.003906 L 27.070313 2.539063 C 25.792969 1.824219 24.207031 1.824219 22.929688 2.539063 L 6.089844 12.003906 C 4.800781 12.726563 4 14.082031 4 15.535156 L 4 34.464844 C 4 35.917969 4.800781 37.273438 6.089844 37.996094 L 22.929688 47.460938 C 23.570313 47.820313 24.285156 48 25 48 C 25.714844 48 26.429688 47.820313 27.070313 47.460938 L 43.910156 37.996094 C 45.199219 37.273438 46 35.917969 46 34.464844 L 46 15.535156 C 46 14.082031 45.199219 12.726563 43.910156 12.003906 Z M 25 37 C 18.382813 37 13 31.617188 13 25 C 13 18.382813 18.382813 13 25 13 C 28.78125 13 32.273438 14.753906 34.542969 17.742188 L 30.160156 20.277344 C 28.84375 18.835938 26.972656 18 25 18 C 21.140625 18 18 21.140625 18 25 C 18 28.859375 21.140625 32 25 32 C 26.972656 32 28.84375 31.164063 30.160156 29.722656 L 34.542969 32.257813 C 32.273438 35.246094 28.78125 37 25 37 Z M 37 26 L 35 26 L 35 28 L 33 28 L 33 26 L 31 26 L 31 24 L 33 24 L 33 22 L 35 22 L 35 24 L 37 24 Z M 44 26 L 42 26 L 42 28 L 40 28 L 40 26 L 38 26 L 38 24 L 40 24 L 40 22 L 42 22 L 42 24 L 44 24 Z" />
    </symbol>

    <symbol id="icon-dart" viewBox="0 0 50 50">
      <path
        d="M7.91 9.32L8 9.41V35.3l-5.09-5.09c-1.81-1.81-2.32-4.59-1.27-6.92L7.91 9.32zM35.3 8H9.41L9.32 7.91l13.97-6.27c2.33-1.05 5.11-.54 6.92 1.27L35.3 8zM37.59 39H11.71l-.54-.54C10.42 37.7 10 36.7 10 35.63V11.41L37.59 39zM13.71 41H39v6c0 .55-.45 1-1 1H21.1c-.27 0-.52-.11-.71-.29l-4.7-4.7.02-.02L13.71 41zM48 21.1V38c0 .55-.45 1-1 1h-6.58L11.41 10h24.22c1.07 0 2.07.42 2.83 1.17l4.53 4.54.02-.02 4.7 4.7C47.89 20.58 48 20.83 48 21.1z" />
    </symbol>

    <symbol id="icon-python" viewBox="0 0 24 24">
      <path
        d="M11.914 0C5.82 0 6.2 2.656 6.2 2.656l.007 2.752h5.814v.826H3.9S0 5.789 0 11.969c0 6.18 3.403 5.96 3.403 5.96h2.03v-2.867s-.109-3.42 3.35-3.42h5.766s3.24.052 3.24-3.148V3.202S18.28 0 11.913 0M8.708 1.85c.578 0 1.046.47 1.046 1.052c0 .581-.468 1.051-1.046 1.051c-.579 0-1.046-.47-1.046-1.051c0-.582.467-1.052 1.046-1.052" />
      <path
        d="M12.087 24c6.092 0 5.712-2.656 5.712-2.656l-.007-2.752h-5.814v-.826h8.123s3.9.445 3.9-5.735c0-6.18-3.404-5.96-3.404-5.96h-2.03v2.867s.109 3.42-3.35 3.42H9.452s-3.24-.052-3.24 3.148v5.292S5.72 24 12.087 24m3.206-1.85c-.579 0-1.046-.47-1.046-1.052c0-.581.467-1.051 1.046-1.051c.578 0 1.046.47 1.046 1.051c0 .582-.468 1.052-1.046 1.052" />
    </symbol>

    <symbol id="icon-ts" viewBox="0 0 50 50">
      <path
        d="M45,4h-40c-0.553,0 -1,0.448 -1,1v40c0,0.552 0.447,1 1,1h40c0.553,0 1,-0.448 1,-1v-40c0,-0.552 -0.447,-1 -1,-1zM29,26.445h-5v15.555h-4v-15.555h-5v-3.445h14zM30.121,41.112v-4.158c0,0 2.271,1.712 4.996,1.712c2.725,0 2.62,-1.782 2.62,-2.026c0,-2.586 -7.721,-2.586 -7.721,-8.315c0,-7.791 11.25,-4.717 11.25,-4.717l-0.14,3.704c0,0 -1.887,-1.258 -4.018,-1.258c-2.131,0 -2.9,1.013 -2.9,2.096c0,2.795 7.791,2.516 7.791,8.141c0.001,8.664 -11.878,4.821 -11.878,4.821z"></path>
    </symbol>

    <symbol id="icon-vb" viewBox="0 0 128 128">
      <path fill="white"
        d="M64 0A64 64 0 0 0 0 64a64 64 0 0 0 64 64a64 64 0 0 0 64-64A64 64 0 0 0 64 0m-3.76 38.7l6.34.1L48 89.202h-6.58L23.14 38.8h6.579l14 40a23.7 23.7 0 0 1 1.02 4.46h.141a22 22 0 0 1 1.119-4.56zm13.6.1h14.34A15.68 15.68 0 0 1 98.54 42a10.34 10.34 0 0 1 3.84 8.34a12.26 12.26 0 0 1-2.38 7.44a12.52 12.52 0 0 1-6.4 4.501v.139a12.82 12.82 0 0 1 8.16 3.84a11.84 11.84 0 0 1 3.06 8.461a13.18 13.18 0 0 1-4.64 10.48a17.28 17.28 0 0 1-11.7 4H73.84zm12.7 5.26l-6.7.06V60.4h5.999a11.48 11.48 0 0 0 7.58-2.4a8.14 8.14 0 0 0 2.781-6.6q0-7.34-9.66-7.34m-6.7 21.641v18.14h8a12 12 0 0 0 8-2.46a8.42 8.42 0 0 0 2.86-6.74q0-8.92-12.16-8.92z" />
    </symbol>

    <symbol id="icon-ig" viewBox="0 0 22 22">
      <path fill="white"
        d="M13.028 2c1.125.003 1.696.009 2.189.023l.194.007c.224.008.445.018.712.03c1.064.05 1.79.218 2.427.465c.66.254 1.216.598 1.772 1.153a4.908 4.908 0 0 1 1.153 1.772c.247.637.415 1.363.465 2.428c.012.266.022.487.03.712l.006.194c.015.492.021 1.063.023 2.188l.001.746v1.31a78.831 78.831 0 0 1-.023 2.188l-.006.194c-.008.225-.018.446-.03.712c-.05 1.065-.22 1.79-.466 2.428a4.883 4.883 0 0 1-1.153 1.772a4.915 4.915 0 0 1-1.772 1.153c-.637.247-1.363.415-2.427.465a72.11 72.11 0 0 1-.712.03l-.194.006c-.493.014-1.064.021-2.189.023l-.746.001h-1.309a78.43 78.43 0 0 1-2.189-.023l-.194-.006a63.036 63.036 0 0 1-.712-.031c-1.064-.05-1.79-.218-2.428-.465a4.889 4.889 0 0 1-1.771-1.153a4.904 4.904 0 0 1-1.154-1.772c-.247-.637-.415-1.363-.465-2.428a74.1 74.1 0 0 1-.03-.712l-.005-.194A79.047 79.047 0 0 1 2 13.028v-2.056a78.82 78.82 0 0 1 .022-2.188l.007-.194c.008-.225.018-.446.03-.712c.05-1.065.218-1.79.465-2.428A4.88 4.88 0 0 1 3.68 3.678a4.897 4.897 0 0 1 1.77-1.153c.638-.247 1.363-.415 2.428-.465c.266-.012.488-.022.712-.03l.194-.006a79 79 0 0 1 2.188-.023zM12 7a5 5 0 1 0 0 10a5 5 0 0 0 0-10m0 2a3 3 0 1 1 .001 6a3 3 0 0 1 0-6m5.25-3.5a1.25 1.25 0 0 0 0 2.5a1.25 1.25 0 0 0 0-2.5" />
    </symbol>

    <symbol id="icon-in" viewBox="0 0 16 16">
      <path
        d="M0 1.146C0 .513.526 0 1.175 0h13.65C15.474 0 16 .513 16 1.146v13.708c0 .633-.526 1.146-1.175 1.146H1.175C.526 16 0 15.487 0 14.854zm4.943 12.248V6.169H2.542v7.225zm-1.2-8.212c.837 0 1.358-.554 1.358-1.248-.015-.709-.52-1.248-1.342-1.248S2.4 3.226 2.4 3.934c0 .694.521 1.248 1.327 1.248zm4.908 8.212V9.359c0-.216.016-.432.08-.586.173-.431.568-.878 1.232-.878.869 0 1.216.662 1.216 1.634v3.865h2.401V9.25c0-2.22-1.184-3.252-2.764-3.252-1.274 0-1.845.7-2.165 1.193v.025h-.016l.016-.025V6.169h-2.4c.03.678 0 7.225 0 7.225z" />
    </symbol>

    <symbol id="icon-programming" viewBox="0 0 24 24">
      <path fill="white" fill-rule="evenodd"
        d="M3.464 3.464C2 4.93 2 7.286 2 12c0 4.714 0 7.071 1.464 8.535C4.93 22 7.286 22 12 22c4.714 0 7.071 0 8.535-1.465C22 19.072 22 16.714 22 12s0-7.071-1.465-8.536C19.072 2 16.714 2 12 2S4.929 2 3.464 3.464m2.96 6.056a.75.75 0 0 1 1.056-.096l.277.23c.605.504 1.12.933 1.476 1.328c.379.42.674.901.674 1.518s-.295 1.099-.674 1.518c-.356.395-.871.824-1.476 1.328l-.277.23a.75.75 0 1 1-.96-1.152l.234-.195c.659-.55 1.09-.91 1.366-1.216c.262-.29.287-.427.287-.513c0-.086-.025-.222-.287-.513c-.277-.306-.707-.667-1.366-1.216l-.234-.195a.75.75 0 0 1-.096-1.056M17.75 15a.75.75 0 0 1-.75.75h-5a.75.75 0 0 1 0-1.5h5a.75.75 0 0 1 .75.75"
        clip-rule="evenodd" />
    </symbol>

    <symbol id="icon-graphic-design" viewBox="0 0 48 48">
      <path fill="white" stroke="white" stroke-linecap="round" stroke-linejoin="round"
        stroke-width="4"
        d="M8 7.282L19.556 4v12.718L8 20zm0 18.393l11.556-3.282v12.718L8 38.393zm16.889-4.599l11.555-2.854v22.924L24.89 44z" />
    </symbol>

    <symbol id="icon-language-learning" viewBox="0 0 24 24">
      <path fill="white"
        d="M11 1H3c-1.1 0-2 .9-2 2v12l3-3h5v-1c0-2.2 1.79-4 4-4V3c0-1.1-.9-2-2-2m0 3H9.5c-.34 1.19-.96 2.3-1.82 3.26l-.02.02l1.26 1.25l-.37 1.01L7 8l-2.5 2.5l-.69-.73l2.53-2.49A8.6 8.6 0 0 1 4.86 5h.99c.31.6.69 1.17 1.15 1.68A7.7 7.7 0 0 0 8.57 4H3V3h3.5V2h1v1H11zm10 5h-8c-1.1 0-2 .9-2 2v7c0 1.1.9 2 2 2h7l3 3V11c0-1.1-.9-2-2-2m-1.37 10l-.85-2.25h-3.56L14.38 19h-1.5l3.37-9h1.5l3.38 9zM17 12l1.22 3.25h-2.43z" />
    </symbol>

    <symbol id="icon-videogames" viewBox="0 0 56 56">
      <path fill="white" fill-rule="evenodd"
        d="M28 14.198c6.125-.045 14.544-7.926 19.804-1.462c5.26 6.463 7.198 23.35 3.813 30.747C50.419 46.1 42.91 46.1 38.27 36.54H17.729C13.09 46.1 5.581 46.1 4.383 43.483C.998 36.086 3.29 18.765 8.196 12.736c4.907-6.03 13.83 1.418 19.804 1.462M17 22v-2.5a1.5 1.5 0 0 0-3 0V22h-2.5a1.5 1.5 0 0 0 0 3H14v2.5a1.5 1.5 0 0 0 3 0V25h2.5a1.5 1.5 0 0 0 0-3zm23 0a2 2 0 1 0 0-4a2 2 0 0 0 0 4m4 4a2 2 0 1 0 0-4a2 2 0 0 0 0 4m-8 0a2 2 0 1 0 0-4a2 2 0 0 0 0 4m4 4a2 2 0 1 0 0-4a2 2 0 0 0 0 4" />
    </symbol>

    <symbol id="icon-football" viewBox="0 0 512 512">
      <path fill="white"
        d="M255.03 33.813a229 229 0 0 0-5.5.03c-6.73.14-13.462.605-20.155 1.344c.333.166.544.32.47.438L204.78 75.063l73.907 49.437l-.125.188l70.625.28L371 79.282L342.844 52a225.6 225.6 0 0 0-49.47-14.78c-12.65-2.24-25.497-3.36-38.343-3.407zM190.907 88.25l-73.656 36.78l-13.813 98.407l51.344 33.657l94.345-43.438l14.875-76.5l-73.094-48.906zm196.344.344l-21.25 44.5l36.75 72.72l62.063 38.905l11.312-21.282c.225.143.45.403.656.75c-.77-4.954-1.71-9.893-2.81-14.782c-6.446-28.59-18.59-55.962-35.5-79.97c-9.07-12.872-19.526-24.778-31.095-35.5l-20.125-5.342zm-302.656 23c-6.906 8.045-13.257 16.56-18.938 25.5c-15.676 24.664-26.44 52.494-31.437 81.312A223 223 0 0 0 31 261l20.25 5.094l33.03-40.5L98.75 122.53l-14.156-10.936zm312.719 112.844l-55.813 44.75l-3.47 101.093l39.626 21.126l77.188-49.594l4.406-78.75l-.094.157l-61.844-38.783zm-140.844 6.406l-94.033 43.312l-1.218 76.625l89.155 57.376l68.938-36.437l3.437-101.75l-66.28-39.126zm-224.22 49.75c.91 8.436 2.29 16.816 4.156 25.094c6.445 28.59 18.62 55.96 35.532 79.968c3.873 5.5 8.02 10.805 12.374 15.938l-9.374-48.156l.124-.032l-27.03-68.844zm117.188 84.844l-51.532 8.156l10.125 52.094a225 225 0 0 0 27.314 20.437a226.3 226.3 0 0 0 46.687 22.594l62.626-13.69l-4.344-31.124l-90.875-58.47zm302.437.5l-64.22 41.25l-42 47.375l4.408 6.156c12.027-5.545 23.57-12.144 34.406-19.72c23.97-16.76 44.604-38.304 60.28-62.97c2.51-3.947 4.87-7.99 7.125-12.092zm-122.78 97.656l-79.94 9.625l-25.968 5.655c26.993 4 54.717 3.044 81.313-2.813c9.412-2.072 18.684-4.79 27.75-8.062l-3.156-4.406z" />
    </symbol>

    <symbol id="icon-cooking" viewBox="0 0 256 256">
      <path fill="white"
        d="M88 48V16a8 8 0 0 1 16 0v32a8 8 0 0 1-16 0m40 8a8 8 0 0 0 8-8V16a8 8 0 0 0-16 0v32a8 8 0 0 0 8 8m32 0a8 8 0 0 0 8-8V16a8 8 0 0 0-16 0v32a8 8 0 0 0 8 8m94.4 35.2a8 8 0 0 0-11.2-1.6L224 104V80a8 8 0 0 0-8-8H40a8 8 0 0 0-8 8v24L12.8 89.6a8 8 0 0 0-9.6 12.8L32 124v60a32 32 0 0 0 32 32h128a32 32 0 0 0 32-32v-60l28.8-21.6a8 8 0 0 0 1.6-11.2" />
    </symbol>

    <symbol id="icon-music" viewBox="0 0 24 24">
      <path fill="white"
        d="M12 3v10.55c-.59-.34-1.27-.55-2-.55c-2.21 0-4 1.79-4 4s1.79 4 4 4s4-1.79 4-4V7h4V3z" />
    </symbol>

    <symbol id="icon-postman" viewBox="0 0 24 24">
      <path fill="white"
        d="M13.527.099C6.955-.744.942 3.9.099 10.473c-.843 6.572 3.8 12.584 10.373 13.428c6.573.843 12.587-3.801 13.428-10.374C24.744 6.955 20.101.943 13.527.099m2.471 7.485a.86.86 0 0 0-.593.25l-4.453 4.453l-.307-.307l-.643-.643c4.389-4.376 5.18-4.418 5.996-3.753m-4.863 4.861l4.44-4.44a.62.62 0 1 1 .847.903l-4.699 4.125zm.33.694l-1.1.238a.06.06 0 0 1-.067-.032a.06.06 0 0 1 .01-.073l.645-.645zm-2.803-.459l1.172-1.172l.879.878l-1.979.426a.074.074 0 0 1-.085-.039a.07.07 0 0 1 .013-.093m-3.646 6.058a.076.076 0 0 1-.069-.083a.1.1 0 0 1 .022-.046h.002l.946-.946l1.222 1.222zm2.425-1.256a.23.23 0 0 0-.117.256l.203.865a.125.125 0 0 1-.211.117h-.003l-.934-.934l-.294-.295l3.762-3.758l1.82-.393l.874.874c-1.255 1.102-2.971 2.201-5.1 3.268m5.279-3.428h-.002l-.839-.839l4.699-4.125a1 1 0 0 0 .119-.127c-.148 1.345-2.029 3.245-3.977 5.091m3.657-6.46l-.003-.002a1.822 1.822 0 0 1 2.459-2.684l-1.61 1.613a.12.12 0 0 0 0 .169l1.247 1.247a1.82 1.82 0 0 1-2.093-.343m2.578 0a1.7 1.7 0 0 1-.271.218h-.001l-1.207-1.207l1.533-1.533c.661.72.637 1.832-.054 2.522m-.1-1.544a.14.14 0 0 0-.053.157a.42.42 0 0 1-.053.45a.14.14 0 0 0 .023.197a.14.14 0 0 0 .084.03a.14.14 0 0 0 .106-.05a.69.69 0 0 0 .087-.751a.14.14 0 0 0-.194-.033" />
    </symbol>

    <symbol id="icon-flag-jp" viewBox="0 0 36 36">
      <path fill="#eee" d="M36 27a4 4 0 0 1-4 4H4a4 4 0 0 1-4-4V9a4 4 0 0 1 4-4h28a4 4 0 0 1 4 4z" />
      <circle cx="18" cy="18" r="7" fill="#ed1b2f" />
    </symbol>

    <symbol id="icon-flag-pan" viewBox="0 0 36 36">
      <path fill="#eee" d="M18 18V5H4a4 4 0 0 0-4 4v9zm0 0v13h14a4 4 0 0 0 4-4v-9z" />
      <path fill="#005293" d="M18 18v13H4a4 4 0 0 1-4-4v-9z" />
      <path fill="#d21034" d="M18 18V5h14a4 4 0 0 1 4 4v9z" />
      <path fill="#005293"
        d="M9.674 10.573L9 8.5l-.674 2.073H6.147l1.763 1.281l-.673 2.073L9 12.646l1.763 1.281l-.673-2.073l1.763-1.281z" />
      <path fill="#d21034"
        d="m25.91 24.854l-.673 2.073L27 25.646l1.763 1.281l-.673-2.073l1.763-1.281h-2.179L27 21.5l-.674 2.073h-2.179z" />
    </symbol>

    <symbol id="icon-flag-usa" viewBox="0 0 36 36">
      <path fill="#b22334"
        d="M35.445 7C34.752 5.809 33.477 5 32 5H18v2zM0 25h36v2H0zm18-8h18v2H18zm0-4h18v2H18zM0 21h36v2H0zm4 10h28c1.477 0 2.752-.809 3.445-2H.555c.693 1.191 1.968 2 3.445 2M18 9h18v2H18z" />
      <path fill="#eee"
        d="M.068 27.679c.017.093.036.186.059.277c.026.101.058.198.092.296c.089.259.197.509.333.743L.555 29h34.89l.002-.004a4.22 4.22 0 0 0 .332-.741a3.75 3.75 0 0 0 .152-.576c.041-.22.069-.446.069-.679H0c0 .233.028.458.068.679M0 23h36v2H0zm0-4v2h36v-2H18zm18-4h18v2H18zm0-4h18v2H18zM.555 7l-.003.005zM.128 8.044c.025-.102.06-.199.092-.297a3.78 3.78 0 0 0-.092.297M18 9h18c0-.233-.028-.459-.069-.68a3.606 3.606 0 0 0-.153-.576A4.21 4.21 0 0 0 35.445 7H18z" />
      <path fill="#3c3b6e" d="M18 5H4a4 4 0 0 0-4 4v10h18z" />
      <path fill="#fff"
        d="m2.001 7.726l.618.449l-.236.725L3 8.452l.618.448l-.236-.725L4 7.726h-.764L3 7l-.235.726zm2 2l.618.449l-.236.725l.617-.448l.618.448l-.236-.725L6 9.726h-.764L5 9l-.235.726zm4 0l.618.449l-.236.725l.617-.448l.618.448l-.236-.725l.618-.449h-.764L9 9l-.235.726zm4 0l.618.449l-.236.725l.617-.448l.618.448l-.236-.725l.618-.449h-.764L13 9l-.235.726zm-8 4l.618.449l-.236.725l.617-.448l.618.448l-.236-.725l.618-.449h-.764L5 13l-.235.726zm4 0l.618.449l-.236.725l.617-.448l.618.448l-.236-.725l.618-.449h-.764L9 13l-.235.726zm4 0l.618.449l-.236.725l.617-.448l.618.448l-.236-.725l.618-.449h-.764L13 13l-.235.726zm-6-6l.618.449l-.236.725L7 8.452l.618.448l-.236-.725L8 7.726h-.764L7 7l-.235.726zm4 0l.618.449l-.236.725l.617-.448l.618.448l-.236-.725l.618-.449h-.764L11 7l-.235.726zm4 0l.618.449l-.236.725l.617-.448l.618.448l-.236-.725l.618-.449h-.764L15 7l-.235.726zm-12 4l.618.449l-.236.725l.617-.448l.618.448l-.236-.725l.618-.449h-.764L3 11l-.235.726zM6.383 12.9L7 12.452l.618.448l-.236-.725l.618-.449h-.764L7 11l-.235.726h-.764l.618.449zm3.618-1.174l.618.449l-.236.725l.617-.448l.618.448l-.236-.725l.618-.449h-.764L11 11l-.235.726zm4 0l.618.449l-.236.725l.617-.448l.618.448l-.236-.725l.618-.449h-.764L15 11l-.235.726zm-12 4l.618.449l-.236.725l.617-.448l.618.448l-.236-.725l.618-.449h-.764L3 15l-.235.726zM6.383 16.9L7 16.452l.618.448l-.236-.725l.618-.449h-.764L7 15l-.235.726h-.764l.618.449zm3.618-1.174l.618.449l-.236.725l.617-.448l.618.448l-.236-.725l.618-.449h-.764L11 15l-.235.726zm4 0l.618.449l-.236.725l.617-.448l.618.448l-.236-.725l.618-.449h-.764L15 15l-.235.726z" />
    </symbol>

    <symbol id="icon-docker" viewBox="0 0 48 48">
      <path
        d="M47.527,19.847c-0.13,-0.102 -1.345,-1.007 -3.908,-1.007c-0.677,0.003 -1.352,0.06 -2.019,0.171c-0.496,-3.354 -3.219,-4.93 -3.345,-5.003l-0.688,-0.392l-0.453,0.644c-0.567,0.866 -1.068,1.76 -1.311,2.763c-0.459,1.915 -0.18,3.713 0.806,5.25c-1.192,0.655 -3.223,0.713 -3.609,0.727h-31.418c-0.826,0.001 -1.496,0.66 -1.501,1.474c-0.037,2.733 0.353,5.553 1.306,8.119c1.089,2.818 2.71,4.894 4.818,6.164c2.362,1.427 6.2,2.243 10.551,2.243c1.965,0.006 3.927,-0.169 5.859,-0.524c2.686,-0.487 5.271,-1.413 7.647,-2.74c1.958,-1.119 3.72,-2.542 5.219,-4.215c2.505,-2.798 3.997,-5.913 5.107,-8.682c0.149,0 0.298,0 0.442,0c2.743,0 4.429,-1.083 5.359,-1.99c0.618,-0.579 1.101,-1.284 1.414,-2.065l0.197,-0.568z"></path>
      <path
        d="M8,22h-3c-0.552,0 -1,-0.448 -1,-1v-3c0,-0.552 0.448,-1 1,-1h3c0.552,0 1,0.448 1,1v3c0,0.552 -0.448,1 -1,1z"></path>
      <path
        d="M14,22h-3c-0.552,0 -1,-0.448 -1,-1v-3c0,-0.552 0.448,-1 1,-1h3c0.552,0 1,0.448 1,1v3c0,0.552 -0.448,1 -1,1z"></path>
      <path
        d="M20,22h-3c-0.552,0 -1,-0.448 -1,-1v-3c0,-0.552 0.448,-1 1,-1h3c0.552,0 1,0.448 1,1v3c0,0.552 -0.448,1 -1,1z"></path>
      <path
        d="M26,22h-3c-0.552,0 -1,-0.448 -1,-1v-3c0,-0.552 0.448,-1 1,-1h3c0.552,0 1,0.448 1,1v3c0,0.552 -0.448,1 -1,1z"></path>
      <path
        d="M14,16h-3c-0.552,0 -1,-0.448 -1,-1v-3c0,-0.552 0.448,-1 1,-1h3c0.552,0 1,0.448 1,1v3c0,0.552 -0.448,1 -1,1z"></path>
      <path
        d="M20,16h-3c-0.552,0 -1,-0.448 -1,-1v-3c0,-0.552 0.448,-1 1,-1h3c0.552,0 1,0.448 1,1v3c0,0.552 -0.448,1 -1,1z"></path>
      <path
        d="M26,16h-3c-0.552,0 -1,-0.448 -1,-1v-3c0,-0.552 0.448,-1 1,-1h3c0.552,0 1,0.448 1,1v3c0,0.552 -0.448,1 -1,1z"></path>
      <path
        d="M26,10h-3c-0.552,0 -1,-0.448 -1,-1v-3c0,-0.552 0.448,-1 1,-1h3c0.552,0 1,0.448 1,1v3c0,0.552 -0.448,1 -1,1z"></path>
      <path
        d="M32,22h-3c-0.552,0 -1,-0.448 -1,-1v-3c0,-0.552 0.448,-1 1,-1h3c0.552,0 1,0.448 1,1v3c0,0.552 -0.448,1 -1,1z"></path>
    </symbol>

    <symbol id="icon-git" viewBox="0 0 50 50">
      <path
        d="M46.79297,22.08984l-18.88281,-18.88281c-0.80078,-0.80469 -1.85547,-1.20703 -2.91016,-1.20703c-1.05469,0 -2.10937,0.40234 -2.91016,1.20703l-3.73437,3.73437l4.62109,4.62109c1.53516,-0.90234 3.53516,-0.70703 4.85156,0.60938c1.31641,1.31641 1.50781,3.31641 0.60547,4.84766l4.54297,4.54297c1.53516,-0.90234 3.53516,-0.70703 4.85156,0.60938c1.5625,1.5625 1.5625,4.09375 0,5.65625c-1.5625,1.5625 -4.09375,1.5625 -5.65625,0c-1.31641,-1.31641 -1.51172,-3.31641 -0.60937,-4.85156l-4.54297,-4.54297c-0.32422,0.19141 -0.66406,0.33203 -1.01953,0.42188v12.28516c1.72266,0.44531 3,1.99609 3,3.85938c0,2.21094 -1.78906,4 -4,4c-2.21094,0 -4,-1.78906 -4,-4c0,-1.86328 1.27734,-3.41406 3,-3.85937v-12.28516c-0.66797,-0.17187 -1.30469,-0.50391 -1.82812,-1.02734c-1.31641,-1.31641 -1.50781,-3.31641 -0.60547,-4.84766l-4.625,-4.625l-13.73437,13.73438c-1.60938,1.60547 -1.60938,4.21484 0,5.82031l18.88281,18.88281c0.80078,0.80469 1.85547,1.20703 2.91016,1.20703c1.05469,0 2.10938,-0.40234 2.91016,-1.20703l18.88281,-18.88281c1.60938,-1.60547 1.60938,-4.21484 0,-5.82031z"></path>
    </symbol>

    <symbol id="icon-powerbi" viewBox="0 0 24 24">
      <path fill="white"
        d="M10 12a1 1 0 0 1 1 1v11H4a1 1 0 0 1-1-1V13a1 1 0 0 1 1-1zm-2-.5V7a1 1 0 0 1 1-1h6a1 1 0 0 1 1 1v17h-4.5V13a1.5 1.5 0 0 0-1.5-1.5zm5-6V1a1 1 0 0 1 1-1h6a1 1 0 0 1 1 1v22a1 1 0 0 1-1 1h-3.5V7A1.5 1.5 0 0 0 15 5.5z" />
    </symbol>

    <symbol id="icon-vs" viewBox="0 0 24 24">
      <path fill="white"
        d="M17.583.063a1.5 1.5 0 0 0-1.032.392h-.001L16.5.5L8.528 9.316L3.875 5.5l-.407-.35a1 1 0 0 0-1.024-.154l-.012.005l-1.817.75l-.077.036l-.047.028l-.038.022l-.048.034l-.03.024l-.044.036l-.036.033l-.032.035l-.033.038l-.035.044l-.024.034l-.032.05l-.02.035l-.024.05l-.02.045l-.016.044l-.016.047l-.015.055l-.01.04l-.008.054l-.006.05L0 6.668v10.666a1 1 0 0 0 .615.917l1.817.764a1 1 0 0 0 1.035-.164l.408-.35l4.653-3.815l7.973 8.815l.072.065l.057.05l.058.042l.063.044l.065.038l.065.036l.068.031l.07.03l.073.025l.066.02l.08.02l.068.014l.075.01l.075.008l.073.003h.077l.078-.005l.067-.007l.087-.015l.06-.012l.08-.022l.068-.02l.07-.028l.09-.037l4.944-2.377a1.5 1.5 0 0 0 .476-.362a2 2 0 0 0 .09-.112l.004-.007a2 2 0 0 0 .08-.125a2 2 0 0 0 .062-.12l.009-.017l.04-.108l.015-.037l.03-.107l.009-.037l.017-.1l.008-.05l.006-.09l.004-.08V3.907a2 2 0 0 0-.01-.15a1.5 1.5 0 0 0-.84-1.17L18.206.21a1.5 1.5 0 0 0-.622-.146zM18 6.92v10.163l-6.198-5.08zM3 8.574l3.099 3.427l-3.1 3.426z" />
    </symbol>

    <symbol id="icon-vscode" viewBox="0 0 512 512">
      <path fill="white"
        d="M383.998 439.738V0L512 53.247v405.504L384 512L0 382.707zM61.18 299.748L32 290.001l72.036-71.208l-72.034-71.207l29.178-9.744l70.81 53.321l117.602-116.25l70.406 29.929v227.895l-70.41 29.928l-117.602-116.243zm107.502-80.956l80.91 60.928V157.864z" />
    </symbol>

    <symbol id="icon-gdd" viewBox="0 0 124 124">
      <path
        d="M32,122h64c7.2,0,13-5.8,13-13V29c0-6.1-2.4-11.9-6.7-16.3S92.1,6,86,6L32,6c-7.2,0-13,5.8-13,13v90 C19,116.2,24.8,122,32,122z M86.1,92h-44c-1.7,0-3-1.3-3-3s1.3-3,3-3h44c1.7,0,3,1.3,3,3S87.8,92,86.1,92z M98,17 c2.5,2.5,4.1,5.6,4.7,9H96c-3.9,0-7-3.1-7-7l0-6.7C92.4,12.9,95.5,14.5,98,17z M41.9,56h44c1.7,0,3,1.3,3,3s-1.3,3-3,3h-44 c-1.7,0-3-1.3-3-3S40.2,56,41.9,56z M41.9,71h44c1.7,0,3,1.3,3,3s-1.3,3-3,3h-44c-1.7,0-3-1.3-3-3S40.2,71,41.9,71z" />
    </symbol>

    <symbol id="icon-game-design" viewBox="0 0 24 24">
      <path fill="white"
        d="M5.575 2.074A.75.75 0 0 1 6 2.75c0 .83.312 1.308.703 1.89l.029.042c.332.494.768 1.141.768 2.068c0 .946-.477 1.78-1.204 2.275q.287.24.506.593c.476.77.698 1.947.698 3.637c0 1.712-.23 3.768-.605 5.41c-.186.816-.417 1.569-.692 2.134a3 3 0 0 1-.51.77c-.206.211-.523.436-.943.436s-.737-.225-.942-.436a3 3 0 0 1-.51-.77c-.276-.566-.507-1.318-.693-2.135A26 26 0 0 1 2 13.254c0-1.69.222-2.866.698-3.636a2.4 2.4 0 0 1 .506-.593A2.75 2.75 0 0 1 2 6.75c0-.368 0-1.001.383-1.818c.375-.8 1.088-1.719 2.398-2.768a.75.75 0 0 1 .794-.09M10 14.917a6 6 0 0 1-1.532-.476q.032-.611.032-1.186q0-.609-.038-1.164c.443.365.966.636 1.538.783V10.5A1.5 1.5 0 0 1 11.5 9H15a4 4 0 0 0-6.585-3.053c-.173-.814-.575-1.41-.832-1.791l-.04-.06A6 6 0 0 1 17 9h3.5a1.5 1.5 0 0 1 1.5 1.5v9a1.5 1.5 0 0 1-1.5 1.5h-9a1.5 1.5 0 0 1-1.5-1.5zm2 0V19h8v-8h-3.341a6.01 6.01 0 0 1-4.66 3.917M14.465 11H12v1.874A4 4 0 0 0 14.465 11" />
    </symbol>

    <symbol id="icon-unity" viewBox="0 0 50 50">
      <path
        d="M44.08203,25.20703l2.82031,-4.77734c0.11328,-0.23828 0.12891,-0.51172 0.04297,-0.75781l-5.58594,-16c-0.17187,-0.48828 -0.68359,-0.76562 -1.17969,-0.64453l-16.41797,4c-0.3125,0.07813 -0.57031,0.30078 -0.69141,0.60156l-1.74609,4.37109h-5.32422c-0.27734,0 -0.54687,0.11719 -0.73437,0.32031l-12,13c-0.37109,0.40234 -0.35156,1.02734 0.04297,1.40234l12.58594,12c0.18359,0.17969 0.43359,0.27734 0.6875,0.27734h5.73828l1.75,4.37109c0.12891,0.32422 0.41797,0.55469 0.75781,0.61328l17.46094,3c0.05469,0.01172 0.11328,0.01563 0.16797,0.01563c0.46484,0 0.875,-0.32031 0.97656,-0.78516l3.54297,-16.23047c0.05469,-0.25 0.01172,-0.51172 -0.125,-0.73437zM21.32422,12l14.09375,-2.58203l-7.41797,14.58203h-16.83203zM22.32422,39l-11.15625,-11h16.83203l8.75,13.16797zM40.38672,38.89844l-8.38672,-12.89844l7.33203,-14.58203l4.75,13.79297z"></path>
    </symbol>

    <symbol id="icon-commited" viewBox="0 0 16 16">
      <path fill="white"
        d="M13 3a5.393 5.393 0 0 1-1.902 1.178c-.748.132-2.818-.828-3.838.152c-.17.17-.38.34-.6.51c-.48-.21-1.22-.53-1.76-.84S3 3 3 3L0 6.5s.74 1 1.2 1.66c.3.44.67 1.11.91 1.56l-.34.4a.876.876 0 0 0 .15 1a.833.833 0 0 0 1.002-.002a.62.62 0 0 0 .077.881a.994.994 0 0 0 1.006-.002a.806.806 0 0 0-.003 1.005a1.012 1.012 0 0 0 .892-.114a.822.822 0 0 0 .187.912a1.093 1.093 0 0 0 1.054-.092l.516-.467c.472.47 1.123.761 1.842.761l.061-.001a1.311 1.311 0 0 0 1.094-.791c.146.056.312.094.488.094c.236 0 .455-.068.64-.185c.585-.387.445-.687.445-.687a1.07 1.07 0 0 0 1.229-.279a.996.996 0 0 0 .138-1.215a.036.036 0 0 0 .021.005c.421 0 .787-.232.978-.574a1.564 1.564 0 0 0-.191-1.48l.003.005c.82-.16.79-.57 1.19-1.17a4.725 4.725 0 0 1 1.387-1.208zm-.05 7.06c-.44.44-.78.25-1.53-.32S9.18 8.1 9.18 8.1c.061.305.202.57.401.781c.319.359 1.269 1.179 1.719 1.599c.28.26 1 .78.58 1.18s-.75 0-1.44-.56s-2.23-1.94-2.23-1.94a.937.937 0 0 0 .27.72c.17.2 1.12 1.12 1.52 1.54s.75.67.41 1s-1.03-.19-1.41-.58c-.59-.57-1.76-1.63-1.76-1.63l-.001.053c0 .284.098.544.263.75c.288.378.848.868 1.188 1.248s.54.7 0 1s-1.34-.44-1.69-.8v-.002a.411.411 0 0 0-.1-.269a.896.896 0 0 0-.906-.188A.609.609 0 0 0 6 11.1a.754.754 0 0 0-.912.001a.61.61 0 0 0-.085-.95a1 1 0 0 0-1.174.08a.66.66 0 0 0-.068-.911a.996.996 0 0 0-1.186-.128L1.91 8.069c-.46-.73-1-1.49-1-1.49l2.28-2.77s.81.5 1.48.88c.33.19.9.44 1.33.64c-.68.51-1.25 1-1.08 1.34a1.834 1.834 0 0 0 2.087.036a2.41 2.41 0 0 1 1.343-.403c.347 0 .677.072.976.203c.554.374 1.574 1.294 2.504 1.874c1.17.85 1.4 1.4 1.12 1.68z" />
    </symbol>

    <symbol id="icon-learn" viewBox="0 0 14 14">
      <path fill="white" fill-rule="evenodd"
        d="M0 5.368A6.007 6.007 0 0 1 5.58 0a.624.624 0 0 0-.093.093a10.129 10.129 0 0 0-2.209 5.275zM3.652 8.91c0 .044.002.088.005.131v2.496A6.011 6.011 0 0 1 0 6.618h3.278c.073.66.21 1.31.41 1.939a1.75 1.75 0 0 0-.036.352Zm.885-2.29h1.75l-1.58.684a1.749 1.749 0 0 0-.051.023a8.88 8.88 0 0 1-.12-.708Zm7.41-1.25H8.665A10.129 10.129 0 0 0 6.457.092A.625.625 0 0 0 6.363 0a6.007 6.007 0 0 1 5.584 5.368Zm-7.41 0h2.87a8.879 8.879 0 0 0-1.435-3.831a8.879 8.879 0 0 0-1.435 3.83ZM9.65 6.71a.546.546 0 0 0-.434 0L5.242 8.432a.546.546 0 0 0-.116.068a.682.682 0 0 0-.349.596v3.028a.682.682 0 0 0 1.365 0v-2.3l3.074 1.331c.139.06.296.06.434 0l3.974-1.721a.546.546 0 0 0 0-1.002zm-2.933 4.51l2.024.877a1.74 1.74 0 0 0 1.383 0l2.024-.877v1.358c0 .12-.038.236-.11.33l-.435-.33l.434.331l-.001.002l-.002.002l-.004.006l-.012.015a2.127 2.127 0 0 1-.165.176c-.11.104-.27.237-.483.368c-.431.264-1.071.514-1.937.514c-.866 0-1.506-.25-1.936-.515a2.883 2.883 0 0 1-.61-.5a1.598 1.598 0 0 1-.037-.044l-.012-.015l-.004-.006l-.002-.002v-.002H6.83l.435-.33l-.435.33a.546.546 0 0 1-.11-.329l-.004-1.36Z"
        clip-rule="evenodd" />
    </symbol>

    <symbol id="icon-organized" viewBox="0 0 24 24">
      <path fill="white" fill-rule="evenodd"
        d="M1.25 7A.75.75 0 0 1 2 6.25h8a.75.75 0 0 1 0 1.5H2A.75.75 0 0 1 1.25 7m0 5a.75.75 0 0 1 .75-.75h6a.75.75 0 0 1 0 1.5H2a.75.75 0 0 1-.75-.75m0 5a.75.75 0 0 1 .75-.75h8a.75.75 0 0 1 0 1.5H2a.75.75 0 0 1-.75-.75M17 17a5 5 0 1 0 0-10a5 5 0 0 0 0 10m.75-7a.75.75 0 0 0-1.5 0v1.846c0 .18.065.355.183.491l1 1.154a.75.75 0 0 0 1.134-.982l-.817-.943z"
        clip-rule="evenodd" />
    </symbol>

    <symbol id="icon-leader" viewBox="0 0 512 495.24">
      <path fill-rule="nonzero"
        d="M365.73 165.01a34.759 34.759 0 0 1-2.93-3.59c-2.15-2.96-4.18-6.05-6.13-9.15l-9.73-15.49c-3.7-5.38-5.64-10.3-5.64-14.19 0-3.9 2.21-8.98 6.61-10.11-.35-5.83-.58-11.75-.58-17.6 0-3.47.06-6.97.19-10.41.19-2.17.59-4.33 1.18-6.43 2.69-8.81 8.6-16.3 16.52-21 2.81-1.76 5.84-3.21 8.98-4.28 5.65-2.14 2.92-10.77 9.15-10.9 14.55-.38 38.48 12.08 47.81 22.19a36.898 36.898 0 0 1 9.53 23.92l-.6 25.48c2.59.63 4.62 2.65 5.26 5.24.78 3.12 0 7.39-2.73 13.43 0 .19-.19.19-.19.39l-11.09 18.29c-2.52 4.12-5.12 8.34-8.04 12.22-3.47 4.63-6.32 3.8-3.36 8.24 21.23 29.18 83.63 10.76 83.63 68.8h-98.73c0-39.53-17.83-56.44-40.18-66.31.71-.79 1.38-1.62 2.02-2.49 2.44-3.6 1.79-3.32-.95-6.25zM70.45 303.86v19.99c0 4.82 1.73 9.03 5.26 12.68 3.52 3.58 7.79 5.38 12.87 5.38h27.52c1.48 6.31 3.34 12.43 5.62 18.3 2.3 5.94 4.89 11.69 7.79 17.26l-21.4 21.33c-3.58 3.41-5.44 7.56-5.44 12.56 0 4.95 1.86 9.22 5.44 12.87l26.48 26.78c3.65 3.4 7.92 5.08 12.88 5.08 4.93 0 9.26-1.68 12.85-5.08l19.61-19.91c5.25 3.39 10.83 6.36 16.63 9.02 5.81 2.66 11.75 4.95 17.75 6.93v30.06c0 5.07 1.73 9.33 5.26 12.86 3.52 3.53 7.8 5.27 12.86 5.27h37.73c4.83 0 9.03-1.74 12.69-5.27 3.58-3.53 5.37-7.79 5.37-12.86v-27.52c6.31-1.48 12.43-3.34 18.3-5.63 5.94-2.29 11.7-4.89 17.26-7.8l21.34 21.41c3.41 3.59 7.61 5.45 12.68 5.45 5.13 0 9.34-1.86 12.74-5.45l26.79-26.47c3.4-3.66 5.07-7.93 5.07-12.87 0-4.95-1.67-9.27-5.07-12.87l-19.92-19.61c3.4-5.24 6.37-10.81 9.03-16.63 2.65-5.81 4.95-11.75 6.93-17.75h30.06c5.07 0 9.33-1.74 12.85-5.26 3.53-3.52 5.26-7.79 5.26-12.87v-29.38h-75c.1 1.93.15 3.88.15 5.83 0 30.57-12.4 58.25-32.42 78.28-20.03 20.03-47.71 32.42-78.27 32.42-30.57 0-58.26-12.39-78.28-32.42-20.03-20.03-32.42-47.71-32.42-78.28 0-1.96.04-3.9.15-5.83h-75zm271.64 0c.13 1.93.2 3.87.2 5.83 0 47.68-38.64 86.3-86.28 86.3-47.68 0-86.3-38.65-86.3-86.3 0-1.96.08-3.91.2-5.83h172.18zM5.3 256.92h501.4c2.92 0 5.3 2.44 5.3 5.31v19.84c0 2.88-2.43 5.3-5.3 5.3H5.3c-2.86 0-5.3-2.38-5.3-5.3v-19.84c0-2.92 2.39-5.31 5.3-5.31zm220.19-100.26c-6.95-6.18-15.67-11.51-16.85-24.36l-.75.02c-1.72-.02-3.38-.42-4.94-1.31-2.48-1.42-4.24-3.85-5.42-6.59-2.5-5.75-4.48-20.89 1.82-25.22l-1.18-.78-.14-1.68c-.24-3.04-.3-6.73-.36-10.6-.23-14.24-.52-31.48-11.96-34.94l-4.91-1.49 3.23-4c9.25-11.42 18.91-21.42 28.65-29.09C223.71 7.95 234.91 2.17 245.87.5c11.27-1.71 22.19.88 32.27 9.03 2.98 2.41 5.87 5.3 8.66 8.69 10.76 1.04 19.55 6.83 25.83 15.1 3.75 4.94 6.6 10.78 8.41 16.98 1.81 6.19 2.6 12.77 2.26 19.25-.61 11.6-4.85 22.93-13.4 31.2 1.5.05 2.92.4 4.17 1.07 4.77 2.55 4.93 8.09 3.67 12.74-1.23 3.89-2.81 8.4-4.3 12.19-1.8 5.1-4.44 6.06-9.54 5.51-.26 12.49-9.38 17.6-17.18 24.88 19.06 35.62 99.94 12.13 99.94 82.92H125.34c0-70.79 79.01-46.36 100.27-83.37l-.12-.03zm-131.4 5.63c-1.08-1.16-2.1-2.41-3.03-3.71-2.23-3.07-4.33-6.27-6.35-9.49l-10.08-16.04c-3.83-5.58-5.84-10.68-5.84-14.71 0-4.04 2.29-9.3 6.84-10.47-.36-6.04-.6-12.18-.6-18.25 0-3.59.07-7.22.21-10.78.19-2.25.6-4.48 1.21-6.65 2.79-9.13 8.91-16.9 17.13-21.76a44.33 44.33 0 0 1 9.29-4.45c5.86-2.21 3.03-11.15 9.49-11.29 15.07-.38 39.86 12.52 49.53 22.99a38.266 38.266 0 0 1 9.88 24.79l-.62 26.41a7.43 7.43 0 0 1 5.45 5.42c.8 3.24 0 7.66-2.83 13.91 0 .21-.2.21-.2.41l-11.49 18.95c-2.61 4.27-5.3 8.65-8.33 12.66-3.59 4.8-6.55 3.94-3.48 8.54.73 1 1.51 1.95 2.33 2.85-24.83 9.45-45.44 25.48-45.44 68.44H8.43c0-60.17 64.67-41.06 86.65-71.29 2.53-3.72 1.86-3.44-.99-6.48z" />
    </symbol>

    <symbol id="icon-teach" viewBox="0 0 640 512">
      <path fill="white"
        d="M208 352c-2.39 0-4.78.35-7.06 1.09C187.98 357.3 174.35 360 160 360c-14.35 0-27.98-2.7-40.95-6.91c-2.28-.74-4.66-1.09-7.05-1.09C49.94 352-.33 402.48 0 464.62C.14 490.88 21.73 512 48 512h224c26.27 0 47.86-21.12 48-47.38c.33-62.14-49.94-112.62-112-112.62m-48-32c53.02 0 96-42.98 96-96s-42.98-96-96-96s-96 42.98-96 96s42.98 96 96 96M592 0H208c-26.47 0-48 22.25-48 49.59V96c23.42 0 45.1 6.78 64 17.8V64h352v288h-64v-64H384v64h-76.24c19.1 16.69 33.12 38.73 39.69 64H592c26.47 0 48-22.25 48-49.59V49.59C640 22.25 618.47 0 592 0" />
    </symbol>

    <symbol id="icon-teamwork" viewBox="0 0 16 16">
      <path fill="white"
        d="M8 2.002a1.998 1.998 0 1 0 0 3.996a1.998 1.998 0 0 0 0-3.996M12.5 3a1.5 1.5 0 1 0 0 3a1.5 1.5 0 0 0 0-3m-9 0a1.5 1.5 0 1 0 0 3a1.5 1.5 0 0 0 0-3M5 7.993A1 1 0 0 1 6 7h4a1 1 0 0 1 1 1v3a3 3 0 0 1-.146.927A3.001 3.001 0 0 1 5 11zM4 8c0-.365.097-.706.268-1H2a1 1 0 0 0-1 1v2.5a2.5 2.5 0 0 0 3.436 2.319A4 4 0 0 1 4 10.999zm8 0v3c0 .655-.157 1.273-.436 1.819A2.5 2.5 0 0 0 15 10.5V8a1 1 0 0 0-1-1h-2.268c.17.294.268.635.268 1" />
    </symbol>

    <symbol id="icon-arduino" viewBox="0 0 24 24">
      <path fill="white"
        d="M18.087 6.146c-.3 0-.607.017-.907.069c-2.532.367-4.23 2.239-5.18 3.674c-.95-1.435-2.648-3.307-5.18-3.674a6.5 6.5 0 0 0-.907-.069C2.648 6.146 0 8.77 0 12s2.656 5.854 5.913 5.854c.3 0 .607-.017.916-.069c2.531-.376 4.23-2.247 5.18-3.683c.949 1.436 2.647 3.307 5.18 3.683c.299.043.607.069.915.069C21.344 17.854 24 15.23 24 12s-2.656-5.854-5.913-5.854M6.53 15.734a4 4 0 0 1-.625.043c-2.148 0-3.889-1.7-3.889-3.777c0-2.085 1.749-3.777 3.898-3.777q.312.002.624.043c2.39.35 3.847 2.768 4.347 3.734c-.508.974-1.974 3.384-4.355 3.734m11.558.043q-.312-.002-.624-.043c-2.39-.35-3.856-2.768-4.347-3.734c.491-.966 1.957-3.384 4.347-3.734q.312-.041.624-.043c2.149 0 3.89 1.7 3.89 3.777c0 2.085-1.75 3.777-3.89 3.777m1.65-4.404v1.134h-1.205v1.182h-1.156v-1.182H16.17v-1.134h1.206V10.19h1.156v1.183zM4.246 12.498H7.82v-1.125H4.245v1.125z" />
    </symbol>

    <symbol id="icon-whatsapp" viewBox="0 0 24 24">
      <path fill="black"
        d="M12.001 2c5.523 0 10 4.477 10 10s-4.477 10-10 10a9.954 9.954 0 0 1-5.03-1.355L2.005 22l1.352-4.968A9.953 9.953 0 0 1 2.001 12c0-5.523 4.477-10 10-10M8.593 7.3l-.2.008a.961.961 0 0 0-.372.1a1.293 1.293 0 0 0-.294.228c-.12.113-.188.211-.261.306A2.73 2.73 0 0 0 6.9 9.62c.002.49.13.967.33 1.413c.409.902 1.082 1.857 1.97 2.742c.214.213.424.427.65.626a9.448 9.448 0 0 0 3.84 2.046l.568.087c.185.01.37-.004.556-.013a1.99 1.99 0 0 0 .833-.231a4.83 4.83 0 0 0 .383-.22s.043-.028.125-.09c.135-.1.218-.171.33-.288c.083-.086.155-.187.21-.302c.078-.163.156-.474.188-.733c.024-.198.017-.306.014-.373c-.004-.107-.093-.218-.19-.265l-.582-.261s-.87-.379-1.402-.621a.497.497 0 0 0-.176-.041a.482.482 0 0 0-.378.127c-.005-.002-.072.055-.795.931a.35.35 0 0 1-.368.13a1.43 1.43 0 0 1-.191-.066c-.124-.052-.167-.072-.252-.108a6.025 6.025 0 0 1-1.575-1.003c-.126-.11-.243-.23-.363-.346a6.297 6.297 0 0 1-1.02-1.268l-.059-.095a.923.923 0 0 1-.102-.205c-.038-.147.061-.265.061-.265s.243-.266.356-.41c.11-.14.203-.276.263-.373c.118-.19.155-.385.093-.536c-.28-.684-.57-1.365-.868-2.041c-.059-.134-.234-.23-.393-.249c-.054-.006-.108-.012-.162-.016a3.385 3.385 0 0 0-.403.004z" />
    </symbol>

    <symbol id="icon-back" viewBox="0 0 512 512">
      <path fill="none" stroke="white" stroke-linecap="round" stroke-linejoin="round"
        stroke-width="48"
        d="M244 400L100 256l144-144M120 256h292" />
    </symbol>

    <symbol id="icon-view" viewBox="0 0 32 32">
      <path fill="black"
        d="M16 8.286C8.454 8.286 2.5 16 2.5 16s5.954 7.715 13.5 7.715c5.77 0 13.5-7.715 13.5-7.715S21.77 8.286 16 8.286m0 12.52c-2.65 0-4.807-2.156-4.807-4.806S13.35 11.193 16 11.193S20.807 13.35 20.807 16S18.65 20.807 16 20.807zm0-7.612a2.806 2.806 0 1 0 0 5.611a2.806 2.806 0 0 0 0-5.611" />
    </symbol>

    <symbol id="icon-code" viewBox="0 0 24 24">
      <path fill="none" stroke="black" stroke-linecap="round" stroke-linejoin="round"
        stroke-width="2"
        d="m7 8l-4 4l4 4m10-8l4 4l-4 4M14 4l-4 16" />
    </symbol>

    <symbol id="icon-" viewBox="0 0 20 20">

    </symbol>

    <symbol id="icon-" viewBox="0 0 20 20">

    </symbol>
  </defs>
</svg>
