<svg version="1.1" id="Layer_1" xmlns="http://www.w3.org/2000/svg"
  xmlns:xlink="http://www.w3.org/1999/xlink" x="0px" y="0px"
  width="100%" viewBox="0 0 2000 2000" enable-background="new 0 0 2000 2000" xml:space="preserve">
<path fill="#000000" opacity="1.000000" stroke="none"
	d="
M1312.000000,2001.000000
	C874.666687,2001.000000 437.833344,2001.000000 1.000000,2001.000000
	C1.000000,1334.333374 1.000000,667.666687 1.000000,1.000000
	C667.666687,1.000000 1334.333374,1.000000 2001.000000,1.000000
	C2001.000000,667.666687 2001.000000,1334.333374 2001.000000,2001.000000
	C1771.500000,2001.000000 1542.000000,2001.000000 1312.000000,2001.000000
M1105.419678,1617.559570
	C1131.808716,1630.087280 1159.596069,1633.626343 1187.938599,1627.619507
	C1207.956421,1623.376953 1227.816040,1617.626099 1247.047363,1610.628174
	C1271.278198,1601.810791 1294.947876,1591.378418 1318.554932,1580.953125
	C1329.214844,1576.245605 1339.393311,1570.284790 1349.338745,1564.159790
	C1365.432251,1554.248291 1381.533936,1544.266479 1396.918457,1533.312012
	C1410.714478,1523.488403 1423.770142,1512.576904 1436.737793,1501.653198
	C1447.614990,1492.490601 1458.152832,1482.884766 1468.352905,1472.972656
	C1475.939575,1465.599854 1482.908691,1457.565308 1489.859009,1449.570068
	C1499.274658,1438.738892 1508.916992,1428.047241 1517.555420,1416.610840
	C1533.918091,1394.948486 1548.883423,1372.343628 1562.265747,1348.650024
	C1578.028320,1320.742188 1591.312500,1291.766846 1602.116943,1261.640869
	C1617.095581,1219.875610 1627.754639,1177.059448 1631.950806,1132.813599
	C1633.758911,1113.747437 1635.651611,1094.605225 1635.817871,1075.483032
	C1636.321411,1017.502625 1636.008789,959.515015 1635.993408,901.530212
	C1635.989990,888.702576 1635.901123,875.874939 1635.957031,862.108643
	C1635.957031,829.891479 1635.957031,797.674316 1635.957031,764.689514
	C1614.530396,769.961975 1593.953369,774.704895 1573.552612,780.113037
	C1533.049316,790.850220 1493.097656,803.257263 1455.931030,823.096924
	C1440.415161,831.379272 1425.575073,840.794128 1414.573364,854.977417
	C1403.944092,868.680603 1399.755859,884.276794 1408.826050,901.168274
	C1412.916260,908.785461 1418.210938,916.015503 1424.112549,922.345947
	C1436.091675,935.195068 1449.375610,946.852051 1458.035034,962.509338
	C1465.026611,975.151123 1469.266235,988.351685 1466.109863,1002.920288
	C1462.245361,1020.757690 1450.846802,1033.380981 1436.832397,1044.058228
	C1420.932861,1056.171753 1403.569458,1065.833618 1384.948364,1072.883057
	C1361.622437,1081.713501 1338.278809,1090.760864 1314.355103,1097.684082
	C1282.039307,1107.036133 1249.226929,1114.714844 1216.508057,1122.616455
	C1193.581665,1128.153198 1170.507324,1133.114502 1147.405762,1137.880493
	C1115.342529,1144.495239 1083.848022,1152.972168 1052.925781,1163.806152
	C1018.908386,1175.724609 986.270264,1190.509277 955.063660,1208.485229
	C933.951660,1220.646240 913.856567,1234.368896 895.901855,1250.837891
	C883.207153,1262.482056 871.199463,1274.853882 861.163757,1289.106812
	C840.379578,1318.625000 829.650879,1350.549805 834.901123,1387.008179
	C837.613831,1405.844849 844.400635,1423.159912 853.993713,1439.335205
	C866.482788,1460.393677 881.829529,1479.279907 900.653625,1495.027222
	C916.612976,1508.377930 932.626526,1521.745361 949.431519,1533.985840
	C978.524292,1555.176514 1010.236938,1572.128662 1042.197632,1588.526978
	C1055.013428,1595.102539 1068.160767,1601.045166 1081.268677,1607.031982
	C1089.069458,1610.594849 1097.087036,1613.683350 1105.419678,1617.559570
M1422.500000,372.000000
	C1266.004517,372.000000 1109.509033,372.008514 953.013611,371.990936
	C929.192688,371.988251 905.370850,371.639709 881.680908,374.966095
	C866.171875,377.143738 850.462769,378.221008 835.128906,381.240967
	C815.472351,385.112213 795.814026,389.494659 776.671204,395.342224
	C739.988220,406.547821 704.345337,420.548035 670.582336,439.023590
	C648.081665,451.336243 625.807678,464.030029 605.588196,479.889099
	C586.310364,495.009613 566.646179,509.789917 548.651978,526.349854
	C532.015015,541.660645 516.971558,558.783325 501.973694,575.768005
	C491.080261,588.104553 480.738708,601.051880 471.321625,614.543884
	C449.597778,645.667725 430.590973,678.402161 415.267334,713.227905
	C402.686859,741.819336 392.126190,771.115906 384.434784,801.361328
	C380.247009,817.829346 377.184296,834.600403 374.085632,851.322083
	C372.245789,861.250732 371.059967,871.322754 370.048462,881.377380
	C368.488037,896.888428 366.358002,912.428894 366.183075,927.976196
	C365.669312,973.635498 365.924438,1019.304504 366.089233,1064.968994
	C366.111511,1071.141357 366.713623,1077.456909 368.124023,1083.452759
	C373.279877,1105.371460 386.496429,1121.148560 406.546112,1131.033691
	C424.543152,1139.906860 443.223694,1140.105103 462.239532,1134.377441
	C484.342926,1127.720093 506.413757,1120.923828 528.673035,1114.823975
	C547.224609,1109.740234 565.969849,1105.317261 584.737610,1101.081787
	C601.175049,1097.372192 617.735229,1094.183594 634.292969,1091.036865
	C649.608704,1088.126099 665.006897,1085.651611 680.343384,1082.846436
	C695.981323,1079.986328 711.580933,1076.917969 727.210693,1074.012573
	C745.561462,1070.601318 763.971985,1067.494995 782.274170,1063.843262
	C805.945190,1059.120483 829.539001,1054.009033 853.158325,1049.028320
	C880.258362,1043.313477 907.406433,1037.809570 934.425720,1031.734009
	C952.872253,1027.586060 971.203064,1022.872314 989.461670,1017.951843
	C1015.496704,1010.935730 1041.590698,1004.053772 1067.331299,996.057617
	C1086.417480,990.128540 1105.275024,983.212891 1123.683960,975.434082
	C1138.020264,969.376160 1151.949829,962.151978 1163.102539,950.550354
	C1171.496094,941.818909 1171.485474,930.117126 1162.972534,921.279419
	C1153.965942,911.929138 1142.698242,906.015747 1132.114136,899.025330
	C1115.521362,888.066406 1099.494995,876.517029 1088.710571,859.218628
	C1081.775024,848.094116 1080.554810,832.373291 1088.610840,820.563965
	C1096.644897,808.786499 1107.761963,800.927795 1119.680420,794.223022
	C1138.192627,783.808838 1157.931152,775.904114 1178.355469,770.141846
	C1199.344238,764.220276 1220.583740,759.166809 1241.785034,754.028442
	C1254.059692,751.053589 1266.434570,748.448364 1278.838379,746.061707
	C1292.711670,743.392273 1306.662354,741.120667 1320.591309,738.745667
	C1334.050049,736.450867 1347.516846,734.201721 1360.993286,732.014160
	C1371.111572,730.371643 1381.238281,728.772400 1391.383911,727.310974
	C1402.037964,725.776489 1412.715698,724.401794 1423.389648,723.008667
	C1432.131958,721.867554 1440.883789,720.799072 1449.632080,719.703552
	C1459.513550,718.466125 1469.385986,717.148315 1479.280273,716.024109
	C1489.205322,714.896423 1499.156860,714.002319 1509.089111,712.936462
	C1520.958618,711.662781 1532.811035,710.225037 1544.688110,709.030884
	C1553.021484,708.193176 1561.393433,707.742737 1569.731079,706.943054
	C1582.607422,705.707947 1595.459473,704.212585 1608.340942,703.037415
	C1617.452271,702.206177 1626.595215,701.721680 1635.706787,701.083618
	C1635.706787,591.079163 1635.706787,481.679474 1635.706787,372.000000
	C1564.776001,372.000000 1494.137939,372.000000 1422.500000,372.000000
z"/>
<path fill="#41D0FD" opacity="1.000000" stroke="none"
	d="
M1423.000000,372.000000
	C1494.137939,372.000000 1564.776001,372.000000 1635.706787,372.000000
	C1635.706787,481.679474 1635.706787,591.079163 1635.706787,701.083618
	C1626.595215,701.721680 1617.452271,702.206177 1608.340942,703.037415
	C1595.459473,704.212585 1582.607422,705.707947 1569.731079,706.943054
	C1561.393433,707.742737 1553.021484,708.193176 1544.688110,709.030884
	C1532.811035,710.225037 1520.958618,711.662781 1509.089111,712.936462
	C1499.156860,714.002319 1489.205322,714.896423 1479.280273,716.024109
	C1469.385986,717.148315 1459.513550,718.466125 1449.632080,719.703552
	C1440.883789,720.799072 1432.131958,721.867554 1423.389648,723.008667
	C1412.715698,724.401794 1402.037964,725.776489 1391.383911,727.310974
	C1381.238281,728.772400 1371.111572,730.371643 1360.993286,732.014160
	C1347.516846,734.201721 1334.050049,736.450867 1320.591309,738.745667
	C1306.662354,741.120667 1292.711670,743.392273 1278.838379,746.061707
	C1266.434570,748.448364 1254.059692,751.053589 1241.785034,754.028442
	C1220.583740,759.166809 1199.344238,764.220276 1178.355469,770.141846
	C1157.931152,775.904114 1138.192627,783.808838 1119.680420,794.223022
	C1107.761963,800.927795 1096.644897,808.786499 1088.610840,820.563965
	C1080.554810,832.373291 1081.775024,848.094116 1088.710571,859.218628
	C1099.494995,876.517029 1115.521362,888.066406 1132.114136,899.025330
	C1142.698242,906.015747 1153.965942,911.929138 1162.972534,921.279419
	C1171.485474,930.117126 1171.496094,941.818909 1163.102539,950.550354
	C1151.949829,962.151978 1138.020264,969.376160 1123.683960,975.434082
	C1105.275024,983.212891 1086.417480,990.128540 1067.331299,996.057617
	C1041.590698,1004.053772 1015.496704,1010.935730 989.461670,1017.951843
	C971.203064,1022.872314 952.872253,1027.586060 934.425720,1031.734009
	C907.406433,1037.809570 880.258362,1043.313477 853.158325,1049.028320
	C829.539001,1054.009033 805.945190,1059.120483 782.274170,1063.843262
	C763.971985,1067.494995 745.561462,1070.601318 727.210693,1074.012573
	C711.580933,1076.917969 695.981323,1079.986328 680.343384,1082.846436
	C665.006897,1085.651611 649.608704,1088.126099 634.292969,1091.036865
	C617.735229,1094.183594 601.175049,1097.372192 584.737610,1101.081787
	C565.969849,1105.317261 547.224609,1109.740234 528.673035,1114.823975
	C506.413757,1120.923828 484.342926,1127.720093 462.239532,1134.377441
	C443.223694,1140.105103 424.543152,1139.906860 406.546112,1131.033691
	C386.496429,1121.148560 373.279877,1105.371460 368.124023,1083.452759
	C366.713623,1077.456909 366.111511,1071.141357 366.089233,1064.968994
	C365.924438,1019.304504 365.669312,973.635498 366.183075,927.976196
	C366.358002,912.428894 368.488037,896.888428 370.048462,881.377380
	C371.059967,871.322754 372.245789,861.250732 374.085632,851.322083
	C377.184296,834.600403 380.247009,817.829346 384.434784,801.361328
	C392.126190,771.115906 402.686859,741.819336 415.267334,713.227905
	C430.590973,678.402161 449.597778,645.667725 471.321625,614.543884
	C480.738708,601.051880 491.080261,588.104553 501.973694,575.768005
	C516.971558,558.783325 532.015015,541.660645 548.651978,526.349854
	C566.646179,509.789917 586.310364,495.009613 605.588196,479.889099
	C625.807678,464.030029 648.081665,451.336243 670.582336,439.023590
	C704.345337,420.548035 739.988220,406.547821 776.671204,395.342224
	C795.814026,389.494659 815.472351,385.112213 835.128906,381.240967
	C850.462769,378.221008 866.171875,377.143738 881.680908,374.966095
	C905.370850,371.639709 929.192688,371.988251 953.013611,371.990936
	C1109.509033,372.008514 1266.004517,372.000000 1423.000000,372.000000
z"/>
<path fill="#08599D" opacity="1.000000" stroke="none"
	d="
M1635.851685,863.047302
	C1635.901123,875.874939 1635.989990,888.702576 1635.993408,901.530212
	C1636.008789,959.515015 1636.321411,1017.502625 1635.817871,1075.483032
	C1635.651611,1094.605225 1633.758911,1113.747437 1631.950806,1132.813599
	C1627.754639,1177.059448 1617.095581,1219.875610 1602.116943,1261.640869
	C1591.312500,1291.766846 1578.028320,1320.742188 1562.265747,1348.650024
	C1548.883423,1372.343628 1533.918091,1394.948486 1517.555420,1416.610840
	C1508.916992,1428.047241 1499.274658,1438.738892 1489.859009,1449.570068
	C1482.908691,1457.565308 1475.939575,1465.599854 1468.352905,1472.972656
	C1458.152832,1482.884766 1447.614990,1492.490601 1436.737793,1501.653198
	C1423.770142,1512.576904 1410.714478,1523.488403 1396.918457,1533.312012
	C1381.533936,1544.266479 1365.432251,1554.248291 1349.338745,1564.159790
	C1339.393311,1570.284790 1329.214844,1576.245605 1318.554932,1580.953125
	C1294.947876,1591.378418 1271.278198,1601.810791 1247.047363,1610.628174
	C1227.816040,1617.626099 1207.956421,1623.376953 1187.938599,1627.619507
	C1159.596069,1633.626343 1131.808716,1630.087280 1105.135742,1616.942139
	C1103.464233,1615.175537 1102.185791,1613.852539 1100.672974,1612.902710
	C1065.611572,1590.888550 1032.459106,1566.576294 1004.751953,1535.400513
	C989.344421,1518.064087 976.413696,1499.237427 967.901123,1477.635132
	C953.748474,1441.719971 956.285583,1406.434082 973.947876,1372.470947
	C988.212585,1345.040894 1009.183716,1323.089966 1033.181396,1303.850464
	C1069.245361,1274.937378 1109.656250,1253.700562 1152.286865,1236.504395
	C1187.709839,1222.215576 1224.246948,1211.399536 1261.539429,1203.112183
	C1303.590332,1193.767700 1345.715454,1184.726562 1387.620361,1174.763184
	C1432.031128,1164.203857 1475.948364,1151.820679 1517.678833,1132.884399
	C1539.446411,1123.006836 1560.336060,1111.628906 1576.795044,1093.684937
	C1583.289917,1086.604126 1588.197021,1078.554077 1590.942383,1069.286011
	C1595.916626,1052.493774 1590.969849,1037.433838 1582.651001,1023.047668
	C1574.481201,1008.919189 1563.074707,997.492065 1551.636108,986.064941
	C1546.831177,981.264954 1542.097412,976.223755 1538.274292,970.645752
	C1530.043091,958.636597 1527.117798,945.540833 1532.356201,931.326294
	C1536.613892,919.772583 1544.996948,911.454834 1554.196411,903.968323
	C1569.418213,891.581116 1586.593140,882.369873 1604.623291,874.822632
	C1614.878784,870.529785 1625.432373,866.948792 1635.851685,863.047302
z"/>
<path fill="#064479" opacity="1.000000" stroke="none"
	d="
M1635.904297,862.578003
	C1625.432373,866.948792 1614.878784,870.529785 1604.623291,874.822632
	C1586.593140,882.369873 1569.418213,891.581116 1554.196411,903.968323
	C1544.996948,911.454834 1536.613892,919.772583 1532.356201,931.326294
	C1527.117798,945.540833 1530.043091,958.636597 1538.274292,970.645752
	C1542.097412,976.223755 1546.831177,981.264954 1551.636108,986.064941
	C1563.074707,997.492065 1574.481201,1008.919189 1582.651001,1023.047668
	C1590.969849,1037.433838 1595.916626,1052.493774 1590.942383,1069.286011
	C1588.197021,1078.554077 1583.289917,1086.604126 1576.795044,1093.684937
	C1560.336060,1111.628906 1539.446411,1123.006836 1517.678833,1132.884399
	C1475.948364,1151.820679 1432.031128,1164.203857 1387.620361,1174.763184
	C1345.715454,1184.726562 1303.590332,1193.767700 1261.539429,1203.112183
	C1224.246948,1211.399536 1187.709839,1222.215576 1152.286865,1236.504395
	C1109.656250,1253.700562 1069.245361,1274.937378 1033.181396,1303.850464
	C1009.183716,1323.089966 988.212585,1345.040894 973.947876,1372.470947
	C956.285583,1406.434082 953.748474,1441.719971 967.901123,1477.635132
	C976.413696,1499.237427 989.344421,1518.064087 1004.751953,1535.400513
	C1032.459106,1566.576294 1065.611572,1590.888550 1100.672974,1612.902710
	C1102.185791,1613.852539 1103.464233,1615.175537 1104.929565,1616.655029
	C1097.087036,1613.683350 1089.069458,1610.594849 1081.268677,1607.031982
	C1068.160767,1601.045166 1055.013428,1595.102539 1042.197632,1588.526978
	C1010.236938,1572.128662 978.524292,1555.176514 949.431519,1533.985840
	C932.626526,1521.745361 916.612976,1508.377930 900.653625,1495.027222
	C881.829529,1479.279907 866.482788,1460.393677 853.993713,1439.335205
	C844.400635,1423.159912 837.613831,1405.844849 834.901123,1387.008179
	C829.650879,1350.549805 840.379578,1318.625000 861.163757,1289.106812
	C871.199463,1274.853882 883.207153,1262.482056 895.901855,1250.837891
	C913.856567,1234.368896 933.951660,1220.646240 955.063660,1208.485229
	C986.270264,1190.509277 1018.908386,1175.724609 1052.925781,1163.806152
	C1083.848022,1152.972168 1115.342529,1144.495239 1147.405762,1137.880493
	C1170.507324,1133.114502 1193.581665,1128.153198 1216.508057,1122.616455
	C1249.226929,1114.714844 1282.039307,1107.036133 1314.355103,1097.684082
	C1338.278809,1090.760864 1361.622437,1081.713501 1384.948364,1072.883057
	C1403.569458,1065.833618 1420.932861,1056.171753 1436.832397,1044.058228
	C1450.846802,1033.380981 1462.245361,1020.757690 1466.109863,1002.920288
	C1469.266235,988.351685 1465.026611,975.151123 1458.035034,962.509338
	C1449.375610,946.852051 1436.091675,935.195068 1424.112549,922.345947
	C1418.210938,916.015503 1412.916260,908.785461 1408.826050,901.168274
	C1399.755859,884.276794 1403.944092,868.680603 1414.573364,854.977417
	C1425.575073,840.794128 1440.415161,831.379272 1455.931030,823.096924
	C1493.097656,803.257263 1533.049316,790.850220 1573.552612,780.113037
	C1593.953369,774.704895 1614.530396,769.961975 1635.957031,764.689514
	C1635.957031,797.674316 1635.957031,829.891479 1635.904297,862.578003
z"/>
</svg>
